<svg width="8" height="5" viewBox="0 0 8 5" fill="none" xmlns="http://www.w3.org/2000/svg">
<path d="M4.31215 4.57234L7.8722 1.01222C7.9546 0.929882 8 0.819964 8 0.702761C8 0.585558 7.9546 0.47564 7.8722 0.393299L7.61008 0.131121C7.43929 -0.0394795 7.16169 -0.0394795 6.99116 0.131121L4.00164 3.12064L1.00881 0.127804C0.926405 0.0454632 0.816552 0 0.699414 0C0.582146 0 0.472293 0.0454632 0.389822 0.127804L0.127774 0.389982C0.0453682 0.472388 -2.95639e-05 0.582242 -2.95639e-05 0.699444C-2.95639e-05 0.816647 0.0453682 0.926565 0.127774 1.00891L3.69108 4.57234C3.77374 4.65487 3.88412 4.70021 4.00145 4.69995C4.11924 4.70021 4.22954 4.65487 4.31215 4.57234Z" fill="#414A4E"/>
</svg>
