<?xml version="1.0" encoding="utf-8"?>
<!-- Generator: Adobe Illustrator 23.0.1, SVG Export Plug-In . SVG Version: 6.00 Build 0)  -->
<svg version="1.1" id="Layer_1" xmlns="http://www.w3.org/2000/svg" xmlns:xlink="http://www.w3.org/1999/xlink" x="0px" y="0px"
	 viewBox="0 0 870.8 78" style="enable-background:new 0 0 870.8 78;" xml:space="preserve">
<style type="text/css">
	.st0{fill:url(#SVGID_1_);}
	.st1{fill:#FFFFFF;}
	.st2{fill-rule:evenodd;clip-rule:evenodd;fill:#ED1B23;}
	.st3{fill-rule:evenodd;clip-rule:evenodd;fill:#F8951C;}
	.st4{fill:#FF5F00;}
	.st5{fill:#EB001B;}
	.st6{fill:#F79E1B;}
	.st7{fill:#1A1F71;}
	.st8{fill:#F7B700;}
	.st9{fill:#62A830;}
	.st10{fill:#006748;}
	.st11{fill:#7369AC;}
	.st12{fill:#CF1C16;}
	.st13{fill:#2D96D3;}
	.st14{fill:#1D1A15;}
	.st15{fill:#C1C1C1;}
</style>
<g id="Слой_1">
	
		<radialGradient id="SVGID_1_" cx="508.8933" cy="515.5278" r="47.5758" gradientTransform="matrix(1 0 0 1 149.0522 -491.5812)" gradientUnits="userSpaceOnUse">
		<stop  offset="0" style="stop-color:#9DD5F6"/>
		<stop  offset="7.110000e-02" style="stop-color:#98D3F5"/>
		<stop  offset="0.1575" style="stop-color:#89CEF3"/>
		<stop  offset="0.2516" style="stop-color:#70C6EF"/>
		<stop  offset="0.3514" style="stop-color:#4EBBEA"/>
		<stop  offset="0.4546" style="stop-color:#23ADE3"/>
		<stop  offset="0.5" style="stop-color:#0DA6E0"/>
		<stop  offset="1" style="stop-color:#2E77BC"/>
	</radialGradient>
	<path class="st0" d="M699.7,15.1H649v50.9h50.7V49.1c0.2-0.3,0.3-0.7,0.3-1.1c0-0.5-0.1-0.8-0.3-1.1"/>
	<path class="st1" d="M653.6,37.1l-1-2.4l-1,2.4 M675.1,36.1c-0.2,0.1-0.4,0.1-0.7,0.1h-1.7v-1.3h1.8c0.2,0,0.5,0,0.7,0.1
		c0.2,0.1,0.3,0.3,0.3,0.5C675.3,35.8,675.2,36,675.1,36.1z M687.4,37.1l-1-2.4l-1,2.4H687.4z M664.4,39.6h-1.5l0-4.7l-2.1,4.7h-1.3
		l-2.1-4.7v4.7h-2.9l-0.5-1.3h-3l-0.6,1.3H649l2.6-6h2.1l2.4,5.6v-5.6h2.3l1.9,4l1.7-4h2.4L664.4,39.6L664.4,39.6z M670.2,39.6h-4.8
		v-6h4.8v1.2h-3.3V36h3.3v1.2h-3.3v1.2h3.3V39.6z M676.9,35.3c0,1-0.6,1.4-1,1.6c0.3,0.1,0.6,0.3,0.7,0.5c0.2,0.3,0.2,0.6,0.2,1.1
		v1.2h-1.4l0-0.8c0-0.4,0-0.9-0.2-1.2c-0.2-0.2-0.5-0.3-1-0.3h-1.5v2.2h-1.4v-6h3.3c0.7,0,1.3,0,1.7,0.3
		C676.7,34.2,676.9,34.6,676.9,35.3z M679.2,39.6h-1.5v-6h1.5V39.6z M696.1,39.6h-2l-2.7-4.5v4.5h-2.9l-0.6-1.3h-3l-0.5,1.3h-1.7
		c-0.7,0-1.6-0.2-2.1-0.7c-0.5-0.5-0.8-1.2-0.8-2.3c0-0.9,0.2-1.7,0.8-2.3c0.5-0.5,1.2-0.7,2.2-0.7h1.4V35h-1.4
		c-0.5,0-0.8,0.1-1.1,0.4c-0.2,0.3-0.4,0.7-0.4,1.3c0,0.6,0.1,1.1,0.4,1.4c0.2,0.2,0.6,0.3,1,0.3h0.6l2-4.7h2.1l2.4,5.6v-5.6h2.2
		l2.5,4.2v-4.2h1.5L696.1,39.6L696.1,39.6z M649,40.8h2.4l0.5-1.3h1.2l0.5,1.3h4.8v-1l0.4,1h2.5l0.4-1v1h11.9l0-2.2h0.2
		c0.2,0,0.2,0,0.2,0.3v1.9h6.2v-0.5c0.5,0.3,1.3,0.5,2.3,0.5h2.6l0.6-1.3h1.2l0.5,1.3h5v-1.3l0.8,1.3h4v-8.3h-4v1l-0.6-1h-4.1v1
		l-0.5-1h-5.5c-0.9,0-1.7,0.1-2.4,0.5v-0.5h-3.8V33c-0.4-0.4-1-0.5-1.6-0.5h-13.8l-0.9,2.1l-1-2.1h-4.4v1l-0.5-1h-3.7l-1.7,4V40.8
		L649,40.8z"/>
	<path class="st1" d="M699.7,45.2h-2.6c-0.3,0-0.4,0-0.6,0.1c-0.2,0.1-0.2,0.2-0.2,0.4c0,0.2,0.1,0.4,0.3,0.4
		c0.2,0.1,0.3,0.1,0.5,0.1l0.8,0c0.8,0,1.3,0.2,1.6,0.5c0.1,0,0.1,0.1,0.1,0.1 M699.7,49.1c-0.3,0.5-1,0.8-1.9,0.8H695v-1.3h2.7
		c0.3,0,0.5,0,0.6-0.1c0.1-0.1,0.2-0.2,0.2-0.4c0-0.2-0.1-0.3-0.2-0.4c-0.1-0.1-0.3-0.1-0.5-0.1c-1.3,0-3,0-3-1.8
		c0-0.9,0.5-1.8,2-1.8h2.8v-1.2h-2.6c-0.8,0-1.4,0.2-1.8,0.5v-0.5h-3.9c-0.6,0-1.4,0.2-1.7,0.5v-0.5h-7v0.5
		c-0.6-0.4-1.5-0.5-1.9-0.5h-4.6v0.5c-0.4-0.4-1.4-0.5-2-0.5H669l-1.2,1.3l-1.1-1.3h-7.7v8.3h7.5l1.2-1.3l1.1,1.3l4.6,0v-2h0.5
		c0.6,0,1.3,0,2-0.3v2.2h3.8v-2.2h0.2c0.2,0,0.3,0,0.3,0.2v1.9H692c0.7,0,1.5-0.2,1.9-0.5v0.5h3.7c0.8,0,1.5-0.1,2.1-0.4L699.7,49.1
		L699.7,49.1z M694,46.8c0.3,0.3,0.4,0.7,0.4,1.3c0,1.3-0.8,1.9-2.2,1.9h-2.8v-1.3h2.8c0.3,0,0.5,0,0.6-0.1c0.1-0.1,0.2-0.2,0.2-0.4
		c0-0.2-0.1-0.3-0.2-0.4c-0.1-0.1-0.3-0.1-0.5-0.1c-1.3,0-3,0-3-1.8c0-0.9,0.5-1.8,2-1.8h2.9v1.3h-2.6c-0.3,0-0.4,0-0.6,0.1
		c-0.2,0.1-0.2,0.2-0.2,0.4c0,0.2,0.1,0.4,0.3,0.4c0.2,0.1,0.3,0.1,0.6,0.1l0.8,0C693.2,46.3,693.7,46.4,694,46.8z M681.2,46.4
		c-0.2,0.1-0.4,0.1-0.7,0.1h-1.7v-1.3h1.8c0.3,0,0.5,0,0.7,0.1c0.2,0.1,0.3,0.3,0.3,0.5S681.3,46.3,681.2,46.4z M682,47.1
		c0.3,0.1,0.6,0.3,0.7,0.5c0.2,0.3,0.2,0.6,0.2,1.1v1.2h-1.4v-0.7c0-0.4,0-0.9-0.2-1.2c-0.2-0.2-0.5-0.3-1-0.3h-1.5v2.2h-1.4v-6h3.3
		c0.7,0,1.2,0,1.7,0.3c0.5,0.3,0.7,0.6,0.7,1.3C683,46.5,682.4,47,682,47.1z M683.8,43.9h4.8v1.2h-3.3v1.1h3.3v1.2h-3.3v1.2l3.3,0
		v1.2h-4.8V43.9z M674.2,46.7h-1.8v-1.5h1.9c0.5,0,0.9,0.2,0.9,0.7C675.1,46.4,674.8,46.7,674.2,46.7z M670.9,49.4l-2.2-2.4l2.2-2.4
		V49.4z M665.3,48.7h-3.5v-1.2h3.1v-1.2h-3.1v-1.1h3.6l1.6,1.7L665.3,48.7z M676.6,45.9c0,1.7-1.2,2-2.5,2h-1.8v2h-2.8l-1.8-2
		l-1.8,2h-5.6v-6h5.7l1.8,2l1.8-2h4.6C675.3,43.9,676.6,44.3,676.6,45.9z"/>
	<g>
		<g>
			<g>
				<path class="st2" d="M407.3,36.5c0-1,0.8-1.8,1.7-1.8c0.9,0,1.7,0.8,1.7,1.8c0,1-0.8,1.8-1.7,1.8
					C408,38.3,407.3,37.5,407.3,36.5L407.3,36.5z M408.9,37.9c0.7,0,1.3-0.6,1.3-1.4c0-0.7-0.6-1.4-1.3-1.4c-0.7,0-1.3,0.6-1.3,1.4
					C407.7,37.3,408.2,37.9,408.9,37.9L408.9,37.9z M408.7,37.3h-0.3v-1.6h0.6c0.1,0,0.3,0,0.4,0.1c0.1,0.1,0.2,0.2,0.2,0.4
					c0,0.2-0.1,0.3-0.3,0.4l0.3,0.7h-0.4l-0.2-0.6h-0.3L408.7,37.3L408.7,37.3z M408.7,36.4h0.2c0.1,0,0.2,0,0.2,0
					c0.1,0,0.1-0.1,0.1-0.2c0-0.1,0-0.1-0.1-0.2c-0.1,0-0.2,0-0.2,0h-0.2V36.4L408.7,36.4z"/>
			</g>
			<path class="st2" d="M383,24.7l-0.5,3c-1-0.5-1.8-0.7-2.5-0.7c-2.1,0-3.6,2.1-3.6,5.2c0,2.1,1,3.4,2.7,3.4c0.7,0,1.5-0.2,2.4-0.7
				l-0.5,3.2c-1,0.3-1.7,0.4-2.5,0.4c-3.1,0-5-2.3-5-6c0-5,2.6-8.5,6.4-8.5c0.5,0,0.9,0,1.3,0.1l1.2,0.3
				C382.6,24.5,382.7,24.5,383,24.7L383,24.7z"/>
			<path class="st2" d="M373.5,26.7c-0.1,0-0.2,0-0.3,0c-0.9,0-1.5,0.5-2.3,1.8l0.3-1.7h-2.6l-1.7,11.3h2.9c1-6.9,1.3-8.1,2.6-8.1
				c0.1,0,0.1,0,0.2,0C372.8,28.7,373.2,27.7,373.5,26.7L373.5,26.7L373.5,26.7z"/>
			<path class="st2" d="M356.5,38c-0.8,0.3-1.4,0.4-2,0.4c-1.5,0-2.2-0.9-2.2-2.5c0-0.3,0-0.7,0.1-1l0.2-1.1l0.1-0.9l1.2-7.7h2.8
				l-0.3,1.7h1.5l-0.4,2.8H356l-0.8,4.7c0,0.2,0,0.4,0,0.5c0,0.6,0.3,0.8,1,0.8c0.3,0,0.6,0,0.8-0.1L356.5,38L356.5,38z"/>
			<path class="st2" d="M345.3,30.4c0,1.4,0.7,2.4,2.2,3.2c1.1,0.6,1.3,0.7,1.3,1.3c0,0.7-0.5,1-1.6,1c-0.8,0-1.6-0.1-2.5-0.5
				l-0.4,2.6l0.1,0l0.5,0.1c0.2,0,0.4,0.1,0.7,0.1c0.7,0.1,1.2,0.1,1.6,0.1c3,0,4.4-1.2,4.4-3.8c0-1.6-0.6-2.5-2-3.2
				c-1.2-0.6-1.3-0.7-1.3-1.2c0-0.6,0.5-0.9,1.4-0.9c0.6,0,1.3,0.1,2,0.2l0.4-2.6c-0.7-0.1-1.8-0.2-2.5-0.2
				C346.4,26.6,345.3,28.3,345.3,30.4L345.3,30.4z"/>
			<path class="st2" d="M405.6,38.2h-2.7l0.1-1.1c-0.8,0.9-1.6,1.3-2.6,1.3c-2.1,0-3.4-1.9-3.4-4.7c0-3.8,2.1-7,4.6-7
				c1.1,0,1.9,0.5,2.7,1.6l0.6-4h2.8L405.6,38.2L405.6,38.2z M401.4,35.5c1.3,0,2.3-1.6,2.3-3.8c0-1.4-0.5-2.2-1.5-2.2
				c-1.3,0-2.2,1.6-2.2,3.8C400,34.7,400.4,35.5,401.4,35.5L401.4,35.5z"/>
			<path class="st2" d="M365.5,37.9c-1,0.3-1.9,0.5-2.9,0.5c-3.2,0-4.8-1.7-4.8-5.1c0-3.9,2.1-6.8,5-6.8c2.3,0,3.8,1.6,3.8,4.1
				c0,0.8-0.1,1.6-0.4,2.8h-5.6c0,0.2,0,0.3,0,0.4c0,1.3,0.8,2,2.5,2c1,0,1.9-0.2,2.9-0.7L365.5,37.9L365.5,37.9z M363.9,31.2
				c0-0.2,0-0.4,0-0.6c0-0.9-0.5-1.5-1.3-1.5c-0.9,0-1.5,0.7-1.8,2L363.9,31.2L363.9,31.2z"/>
			<polygon class="st2" points="333.9,38.2 331.1,38.2 332.7,27.5 329.1,38.2 327.2,38.2 326.9,27.5 325.2,38.2 322.5,38.2 
				324.8,24.2 328.9,24.2 329,32.9 331.7,24.2 336.1,24.2 			"/>
			<path class="st2" d="M341.3,33.1c-0.3,0-0.4,0-0.6,0c-1.6,0-2.4,0.6-2.4,1.7c0,0.7,0.4,1.2,1,1.2C340.4,36,341.2,34.8,341.3,33.1
				L341.3,33.1z M343.3,38.2H341L341,37c-0.7,0.9-1.7,1.4-3,1.4c-1.5,0-2.6-1.3-2.6-3.1c0-2.8,1.8-4.4,5-4.4c0.3,0,0.7,0,1.2,0.1
				c0.1-0.4,0.1-0.5,0.1-0.7c0-0.7-0.5-1-1.8-1c-0.8,0-1.7,0.1-2.4,0.3l-0.4,0.1l-0.2,0.1l0.4-2.5c1.4-0.4,2.4-0.6,3.4-0.6
				c2.4,0,3.7,1.2,3.7,3.3c0,0.6,0,1-0.2,2.2l-0.6,4l-0.1,0.7l-0.1,0.6l0,0.4L343.3,38.2L343.3,38.2z"/>
			<path class="st2" d="M387.9,33.1c-0.3,0-0.4,0-0.6,0c-1.6,0-2.4,0.6-2.4,1.7c0,0.7,0.4,1.2,1,1.2C387,36,387.8,34.8,387.9,33.1
				L387.9,33.1z M389.9,38.2h-2.4l0.1-1.2c-0.7,0.9-1.7,1.4-3,1.4c-1.5,0-2.6-1.3-2.6-3.1c0-2.8,1.8-4.4,5-4.4c0.3,0,0.7,0,1.2,0.1
				c0.1-0.4,0.1-0.5,0.1-0.7c0-0.7-0.5-1-1.8-1c-0.8,0-1.7,0.1-2.4,0.3l-0.4,0.1l-0.2,0.1l0.4-2.5c1.4-0.4,2.4-0.6,3.4-0.6
				c2.4,0,3.7,1.2,3.7,3.3c0,0.6,0,1-0.2,2.2l-0.6,4l-0.1,0.7l-0.1,0.6l-0.1,0.4L389.9,38.2L389.9,38.2z"/>
			<path class="st2" d="M397.9,26.7c-0.1,0-0.2,0-0.3,0c-0.9,0-1.5,0.5-2.3,1.8l0.3-1.7h-2.6l-1.7,11.3h2.8c1-6.9,1.3-8.1,2.6-8.1
				c0.1,0,0.1,0,0.2,0C397.1,28.7,397.5,27.7,397.9,26.7L397.9,26.7L397.9,26.7z"/>
		</g>
		<g>
			<path class="st3" d="M386,49.2c0,2.6-0.8,4.1-2,4.1c-0.9,0-1.5-1-1.5-2.5c0-1.8,0.8-3.9,2.1-3.9C385.6,46.9,386,48,386,49.2
				L386,49.2z M388.7,49.2c0-2.9-1.4-5.1-4.1-5.1c-3.1,0-5,2.7-5,6.7c0,2.8,1.2,5.2,4.1,5.2C386.6,56,388.7,53.9,388.7,49.2
				L388.7,49.2z"/>
			<path class="st3" d="M380.6,42.1l-0.4,3c-0.9-0.5-1.6-0.8-2.4-0.8c-2,0-3.4,2.2-3.4,5.2c0,2.1,0.9,3.4,2.5,3.4
				c0.7,0,1.4-0.2,2.3-0.7l-0.5,3.2c-1,0.3-1.6,0.4-2.4,0.4c-2.9,0-4.6-2.3-4.6-6c0-5,2.5-8.5,6-8.5c0.5,0,0.9,0.1,1.2,0.2l1.1,0.3
				C380.3,42,380.3,42,380.6,42.1L380.6,42.1z"/>
			<path class="st3" d="M363,44.2c-0.1,0-0.2,0-0.3,0c-0.9,0-1.4,0.5-2.2,1.8l0.2-1.7h-2.4l-1.6,11.3h2.7c1-6.9,1.2-8.1,2.5-8.1
				c0.1,0,0.1,0,0.2,0C362.3,46.1,362.6,45.1,363,44.2L363,44.2L363,44.2z"/>
			<path class="st3" d="M397.6,55.5h-2.5l0.1-1.1c-0.7,0.9-1.5,1.3-2.5,1.3c-1.9,0-3.2-1.9-3.2-4.7c0-3.8,2-7,4.3-7
				c1,0,1.8,0.5,2.5,1.6l0.6-4h2.6L397.6,55.5L397.6,55.5z M393.7,52.8c1.3,0,2.1-1.6,2.1-3.8c0-1.4-0.5-2.2-1.4-2.2
				c-1.2,0-2.1,1.6-2.1,3.8C392.4,52.1,392.8,52.8,393.7,52.8L393.7,52.8z"/>
			<path class="st3" d="M338.1,55.5c-0.9,0.3-1.8,0.5-2.7,0.5c-3,0-4.5-1.7-4.5-5.1c0-3.9,2-6.8,4.6-6.8c2.2,0,3.6,1.6,3.6,4.1
				c0,0.8-0.1,1.7-0.3,2.8h-5.3c0,0.2,0,0.3,0,0.4c0,1.3,0.8,2,2.3,2c0.9,0,1.8-0.2,2.8-0.7L338.1,55.5L338.1,55.5z M336.6,48.7
				c0-0.2,0-0.4,0-0.6c0-0.9-0.5-1.5-1.3-1.5c-0.8,0-1.4,0.7-1.7,2L336.6,48.7L336.6,48.7z"/>
			<path class="st3" d="M369.7,55.5c-0.9,0.3-1.8,0.5-2.7,0.5c-3,0-4.5-1.7-4.5-5.1c0-3.9,2-6.8,4.6-6.8c2.2,0,3.6,1.6,3.6,4.1
				c0,0.8-0.1,1.7-0.3,2.8h-5.3c0,0.2,0,0.3,0,0.4c0,1.3,0.8,2,2.3,2c0.9,0,1.8-0.2,2.8-0.7L369.7,55.5L369.7,55.5z M368.2,48.7
				c0-0.2,0-0.4,0-0.6c0-0.9-0.5-1.5-1.3-1.5c-0.8,0-1.5,0.7-1.7,2L368.2,48.7L368.2,48.7z"/>
			<path class="st3" d="M406.7,55.5c-0.9,0.3-1.8,0.5-2.7,0.5c-3,0-4.5-1.7-4.5-5.1c0-3.9,2-6.8,4.6-6.8c2.2,0,3.6,1.6,3.6,4.1
				c0,0.8-0.1,1.7-0.3,2.8h-5.3c0,0.2,0,0.3,0,0.4c0,1.3,0.8,2,2.3,2c1,0,1.8-0.2,2.8-0.7L406.7,55.5L406.7,55.5z M405.2,48.7
				c0-0.2,0-0.4,0-0.6c0-0.9-0.5-1.5-1.3-1.5c-0.8,0-1.4,0.7-1.7,2L405.2,48.7L405.2,48.7z"/>
			<path class="st3" d="M330.3,44.7c-0.5-0.3-1.2-0.7-2.2-0.7c-1.1,0-1.9,0.2-1.9,1.4c0,2,3.9,1.3,3.9,5.6c0,3.9-2.6,4.9-4.9,4.9
				c-1,0-2.2-0.3-3.1-0.7l0.6-2.9c0.5,0.5,1.6,0.8,2.5,0.8c0.8,0,2.1-0.2,2.1-1.7c0-2.3-3.9-1.4-3.9-5.4c0-3.7,2.3-4.8,4.5-4.8
				c1.2,0,2.4,0.2,3.1,0.6L330.3,44.7L330.3,44.7z"/>
			<path class="st3" d="M345.9,55.5c-0.5,0.3-1.3,0.4-2.4,0.4c-2.3,0-3.8-2.3-3.8-5.1c0-3.7,2.1-6.6,5.1-6.6c0.7,0,1.7,0.3,2.5,0.8
				l-0.6,2.7c-0.6-0.4-1.2-0.6-1.8-0.6c-1.4,0-2.4,1.3-2.4,3.6c0,1.3,0.7,2.4,1.9,2.4c0.7,0,1.2-0.1,1.8-0.5L345.9,55.5L345.9,55.5z
				"/>
			<path class="st3" d="M355.8,52.6c-0.1,1-0.3,1.9-0.3,2.9h-2.6l0.2-1.8h0c-0.8,1.2-1.6,2.1-3.1,2.1c-1.6,0-2.5-1.7-2.5-3.9
				c0-0.8,0-1.2,0.2-2.4l0.7-5.2h2.8l-0.8,5.3c-0.1,0.6-0.2,1.1-0.2,1.7c0,0.7,0.3,1.3,1.1,1.3c1.2,0,1.9-1.4,2-3.1l0.8-5.2h2.8
				L355.8,52.6L355.8,52.6z"/>
			<g>
				<polygon class="st3" points="409.3,55.4 408.9,55.4 408.9,53.5 408.3,53.5 408.3,53.1 410,53.1 410,53.5 409.3,53.5 				"/>
				<polygon class="st3" points="412.2,55.4 411.8,55.4 411.8,53.5 411.8,53.5 411.4,55.4 411,55.4 410.6,53.5 410.6,53.5 
					410.6,55.4 410.2,55.4 410.2,53.1 410.8,53.1 411.2,54.9 411.2,54.9 411.6,53.1 412.2,53.1 				"/>
			</g>
		</g>
	</g>
	<g>
		<path d="M470.6,64.9v-3.3c0-1.3-0.8-2.1-2.1-2.1c-0.7,0-1.4,0.2-1.9,0.9c-0.4-0.6-0.9-0.9-1.8-0.9c-0.5,0-1.1,0.2-1.5,0.8v-0.7
			h-1.2v5.3h1.2V62c0-0.9,0.5-1.4,1.3-1.4s1.2,0.5,1.2,1.4v2.9h1.2V62c0-0.9,0.5-1.4,1.3-1.4c0.8,0,1.2,0.5,1.2,1.4v2.9L470.6,64.9
			L470.6,64.9z M487.6,59.6h-1.9V58h-1.2v1.6h-1v1h1v2.4c0,1.2,0.5,1.9,1.8,1.9c0.5,0,1-0.2,1.4-0.4l-0.3-1c-0.3,0.2-0.7,0.3-1,0.3
			c-0.5,0-0.8-0.3-0.8-0.9v-2.4h1.9L487.6,59.6L487.6,59.6z M497.4,59.5c-0.7,0-1.1,0.3-1.4,0.8v-0.7h-1.2v5.3h1.2v-3
			c0-0.9,0.4-1.4,1.1-1.4c0.2,0,0.5,0.1,0.7,0.1l0.3-1.1C497.9,59.5,497.6,59.5,497.4,59.5L497.4,59.5L497.4,59.5z M482.6,60.1
			c-0.5-0.4-1.3-0.5-2.1-0.5c-1.3,0-2.2,0.7-2.2,1.7c0,0.9,0.7,1.4,1.8,1.5l0.5,0.1c0.6,0.1,0.9,0.3,0.9,0.5c0,0.4-0.4,0.7-1.2,0.7
			s-1.4-0.3-1.8-0.5l-0.5,0.9c0.6,0.4,1.4,0.7,2.2,0.7c1.5,0,2.4-0.7,2.4-1.7c0-0.9-0.7-1.4-1.8-1.6l-0.5-0.1
			c-0.5-0.1-0.9-0.2-0.9-0.5c0-0.4,0.4-0.6,1-0.6c0.7,0,1.3,0.3,1.6,0.4L482.6,60.1L482.6,60.1z M513.2,59.5c-0.7,0-1.1,0.3-1.4,0.8
			v-0.7h-1.2v5.3h1.2v-3c0-0.9,0.4-1.4,1.1-1.4c0.2,0,0.5,0.1,0.7,0.1l0.3-1.1C513.8,59.5,513.4,59.5,513.2,59.5L513.2,59.5
			L513.2,59.5z M498.5,62.3c0,1.6,1.1,2.7,2.8,2.7c0.8,0,1.3-0.2,1.9-0.6l-0.5-0.9c-0.4,0.3-0.9,0.5-1.4,0.5c-0.9,0-1.6-0.7-1.6-1.7
			c0-1,0.7-1.6,1.6-1.7c0.5,0,0.9,0.2,1.4,0.5l0.5-0.9c-0.5-0.4-1.1-0.6-1.9-0.6C499.6,59.5,498.5,60.7,498.5,62.3L498.5,62.3
			L498.5,62.3z M509.2,62.3v-2.6H508v0.7c-0.4-0.5-0.9-0.8-1.6-0.8c-1.5,0-2.6,1.2-2.6,2.7s1.2,2.7,2.6,2.7c0.8,0,1.3-0.3,1.6-0.8
			v0.7h1.2L509.2,62.3L509.2,62.3z M504.9,62.3c0-0.9,0.6-1.7,1.6-1.7c0.9,0,1.6,0.7,1.6,1.7c0,0.9-0.7,1.7-1.6,1.7
			C505.5,63.9,504.9,63.2,504.9,62.3L504.9,62.3z M491.2,59.5c-1.5,0-2.6,1.1-2.6,2.7c0,1.6,1.1,2.7,2.7,2.7c0.8,0,1.5-0.2,2.1-0.7
			l-0.5-0.8c-0.4,0.3-1,0.5-1.5,0.5c-0.7,0-1.4-0.3-1.6-1.3h3.9v-0.4C493.6,60.6,492.7,59.5,491.2,59.5L491.2,59.5L491.2,59.5z
			 M491.2,60.5c0.7,0,1.2,0.4,1.3,1.3h-2.7C489.9,61.1,490.4,60.5,491.2,60.5L491.2,60.5z M519.7,62.3v-4.7h-1.2v2.7
			c-0.4-0.5-0.9-0.8-1.6-0.8c-1.5,0-2.6,1.2-2.6,2.7s1.2,2.7,2.6,2.7c0.8,0,1.3-0.3,1.6-0.8v0.7h1.2L519.7,62.3L519.7,62.3z
			 M515.5,62.3c0-0.9,0.6-1.7,1.6-1.7c0.9,0,1.6,0.7,1.6,1.7c0,0.9-0.7,1.7-1.6,1.7C516.1,63.9,515.5,63.2,515.5,62.3L515.5,62.3z
			 M477,62.3v-2.6h-1.2v0.7c-0.4-0.5-0.9-0.8-1.6-0.8c-1.5,0-2.6,1.2-2.6,2.7s1.2,2.7,2.6,2.7c0.8,0,1.3-0.3,1.6-0.8v0.7h1.2
			L477,62.3L477,62.3z M472.8,62.3c0-0.9,0.6-1.7,1.6-1.7c0.9,0,1.6,0.7,1.6,1.7c0,0.9-0.7,1.7-1.6,1.7
			C473.4,63.9,472.8,63.2,472.8,62.3z"/>
		<rect x="482.2" y="19.7" class="st4" width="17.3" height="31"/>
		<path class="st5" d="M483.3,35.2c0-6.3,3-11.9,7.5-15.5c-3.3-2.6-7.6-4.2-12.2-4.2c-10.9,0-19.7,8.8-19.7,19.7s8.8,19.7,19.7,19.7
			c4.6,0,8.8-1.6,12.2-4.2C486.3,47.1,483.3,41.5,483.3,35.2z"/>
		<path class="st6" d="M522.8,35.2c0,10.9-8.8,19.7-19.7,19.7c-4.6,0-8.8-1.6-12.2-4.2c4.6-3.6,7.5-9.2,7.5-15.5s-3-11.9-7.5-15.5
			c3.3-2.6,7.6-4.2,12.2-4.2C514,15.4,522.8,24.3,522.8,35.2z"/>
	</g>
	<g>
		<path class="st7" d="M237.1,31.3l-6.9,16.6h-4.5l-3.4-13.2c-0.2-0.8-0.4-1.1-1-1.5c-1-0.6-2.7-1.1-4.2-1.4l0.1-0.5h7.3
			c0.9,0,1.8,0.6,2,1.7l1.8,9.6l4.5-11.3H237.1z M243.2,31.3l-3.5,16.6h-4.3l3.5-16.6C239,31.3,243.2,31.3,243.2,31.3z M254.9,42.4
			c0-4.4-6-4.6-6-6.6c0-0.6,0.6-1.2,1.8-1.4c0.6-0.1,2.3-0.1,4.2,0.7l0.8-3.5c-1-0.4-2.4-0.7-4-0.7c-4.2,0-7.2,2.2-7.2,5.5
			c0,2.4,2.1,3.7,3.7,4.5c1.7,0.8,2.2,1.3,2.2,2.1c0,1.1-1.3,1.6-2.6,1.6c-2.2,0-3.4-0.6-4.4-1l-0.8,3.6c1,0.5,2.8,0.9,4.8,0.9
			C251.9,48.1,254.8,45.9,254.9,42.4L254.9,42.4z M266,47.8h4l-3.5-16.6h-3.7c-0.8,0-1.5,0.5-1.8,1.2l-6.4,15.3h4.5l0.9-2.5h5.5
			L266,47.8z M261.3,42l2.3-6.2l1.3,6.2H261.3z M248.7,52.4H247V54h1.9v0.5h-2.5V50h2.4v0.5H247v1.4h1.7V52.4z M249.8,49.7h0.6v4.7
			h-0.6V49.7z M251.9,53c0,0.8,0.5,1.1,1.1,1.1c0.4,0,0.7-0.1,0.9-0.2l0.1,0.4c-0.2,0.1-0.6,0.2-1.1,0.2c-1,0-1.6-0.7-1.6-1.6
			s0.6-1.7,1.5-1.7c1.1,0,1.3,0.9,1.3,1.5c0,0.1,0,0.2,0,0.3L251.9,53L251.9,53z M253.6,52.6c0-0.4-0.2-0.9-0.8-0.9
			c-0.6,0-0.9,0.5-0.9,0.9H253.6z M257.4,54.4c-0.2,0.1-0.5,0.2-0.9,0.2c-1,0-1.6-0.7-1.6-1.6c0-1,0.7-1.7,1.7-1.7
			c0.3,0,0.7,0.1,0.8,0.2l-0.1,0.4c-0.1-0.1-0.4-0.2-0.7-0.2c-0.7,0-1.1,0.6-1.1,1.2c0,0.7,0.5,1.2,1.1,1.2c0.3,0,0.6-0.1,0.7-0.2
			L257.4,54.4z M259,50.5v0.8h0.8v0.4H259v1.7c0,0.4,0.1,0.6,0.4,0.6c0.2,0,0.3,0,0.3,0l0,0.4c-0.1,0-0.3,0.1-0.5,0.1
			c-0.3,0-0.5-0.1-0.6-0.2c-0.2-0.2-0.2-0.5-0.2-0.8v-1.8h-0.5v-0.4h0.5v-0.6L259,50.5z M260.7,52.3c0-0.4,0-0.7,0-1h0.5l0,0.6h0
			c0.1-0.4,0.5-0.7,0.9-0.7c0.1,0,0.1,0,0.2,0v0.6c-0.1,0-0.1,0-0.2,0c-0.4,0-0.7,0.3-0.8,0.7c0,0.1,0,0.2,0,0.3v1.7h-0.6
			L260.7,52.3L260.7,52.3z M265.9,52.8c0,1.2-0.8,1.7-1.6,1.7c-0.9,0-1.5-0.6-1.5-1.7c0-1.1,0.7-1.7,1.6-1.7
			C265.3,51.2,265.9,51.9,265.9,52.8z M263.3,52.9c0,0.7,0.4,1.2,1,1.2c0.6,0,1-0.5,1-1.3c0-0.5-0.3-1.2-1-1.2
			C263.6,51.6,263.3,52.3,263.3,52.9z M266.8,52.1c0-0.3,0-0.6,0-0.9h0.5l0,0.5h0c0.2-0.3,0.5-0.6,1.1-0.6c0.4,0,1.1,0.3,1.1,1.4
			v1.9h-0.6v-1.9c0-0.5-0.2-1-0.7-1c-0.4,0-0.7,0.3-0.8,0.6c0,0.1,0,0.2,0,0.3v1.9h-0.6L266.8,52.1L266.8,52.1z"/>
		<rect x="209" y="57" class="st8" width="71" height="6"/>
		<rect x="209" y="19" class="st7" width="71" height="6"/>
	</g>
	<g>
		<path class="st7" d="M160.6,32.3l-7.5,17.8h-4.9l-3.7-14.2c-0.2-0.9-0.4-1.2-1.1-1.6c-1.1-0.6-2.9-1.2-4.5-1.5l0.1-0.5h7.8
			c1,0,1.9,0.7,2.1,1.8l1.9,10.3l4.8-12.1L160.6,32.3L160.6,32.3z M167.2,32.3l-3.8,17.8h-4.6l3.8-17.8H167.2z M179.7,44.3
			c0-4.7-6.5-5-6.5-7.1c0-0.6,0.6-1.3,2-1.5c0.7-0.1,2.5-0.2,4.5,0.8l0.8-3.8c-1.1-0.4-2.5-0.8-4.3-0.8c-4.6,0-7.8,2.4-7.8,5.9
			c0,2.6,2.3,4,4,4.8c1.8,0.9,2.4,1.4,2.4,2.2c0,1.2-1.4,1.7-2.8,1.7c-2.3,0-3.7-0.6-4.7-1.1l-0.8,3.9c1.1,0.5,3.1,0.9,5.1,0.9
			C176.5,50.4,179.7,48,179.7,44.3L179.7,44.3z M191.7,50.1h4.3l-3.7-17.8h-3.9c-0.9,0-1.6,0.5-2,1.3l-6.9,16.5h4.8l1-2.7h5.9
			L191.7,50.1z M186.6,43.8l2.4-6.7l1.4,6.7H186.6z"/>
		<rect x="133" y="57" class="st8" width="71" height="6"/>
		<rect x="133" y="19" class="st7" width="71" height="6"/>
	</g>
	<g>
		<g>
			<path class="st7" d="M8.1,33.4L3.8,20.3h1.8l2,6.5c0.6,1.8,1,3.4,1.4,4.9h0c0.3-1.5,0.9-3.2,1.5-4.9l2.2-6.5h1.8L10,33.4H8.1
				L8.1,33.4z"/>
			<path class="st7" d="M15.6,29c0,2.3,1.5,3.3,3.2,3.3c1.2,0,2-0.2,2.6-0.5l0.3,1.2c-0.6,0.3-1.7,0.6-3.1,0.6
				c-2.9,0-4.6-1.9-4.6-4.8s1.7-5.1,4.4-5.1c3.1,0,3.9,2.7,3.9,4.4c0,0.3,0,0.6,0,0.8L15.6,29L15.6,29z M20.6,27.8
				c0-1.1-0.4-2.8-2.4-2.8c-1.7,0-2.5,1.6-2.6,2.8H20.6z"/>
			<path class="st7" d="M23.6,26.9c0-1.1,0-2-0.1-2.9H25l0,1.8h0.1c0.4-1.3,1.5-2,2.6-2c0.2,0,0.3,0,0.5,0v1.6c-0.2,0-0.3,0-0.6,0
				c-1.2,0-2,0.9-2.3,2.2c0,0.2-0.1,0.5-0.1,0.8v5h-1.7L23.6,26.9L23.6,26.9z"/>
			<path class="st7" d="M31.2,21.4c0,0.6-0.4,1-1.1,1c-0.6,0-1-0.5-1-1c0-0.6,0.4-1.1,1.1-1.1C30.7,20.3,31.2,20.7,31.2,21.4
				 M29.3,24H31v9.4h-1.7V24z"/>
			<path class="st7" d="M33.2,33.4v-8.1h-1.3V24h1.3v-0.4c0-1.3,0.3-2.5,1.1-3.3c0.7-0.6,1.5-0.9,2.3-0.9c0.6,0,1.1,0.1,1.5,0.3
				L37.9,21c-0.3-0.1-0.6-0.2-1.1-0.2c-1.4,0-1.8,1.3-1.8,2.7V24h2.3v1.3H35v8.1L33.2,33.4L33.2,33.4z"/>
			<path class="st7" d="M40.8,21.4c0,0.6-0.4,1-1.1,1c-0.6,0-1-0.5-1-1c0-0.6,0.4-1.1,1.1-1.1S40.8,20.7,40.8,21.4 M38.8,24h1.7v9.4
				h-1.7V24z"/>
			<path class="st7" d="M43.6,29c0,2.3,1.5,3.3,3.2,3.3c1.2,0,2-0.2,2.6-0.5l0.3,1.2c-0.6,0.3-1.7,0.6-3.1,0.6
				c-2.9,0-4.6-1.9-4.6-4.8s1.7-5.1,4.4-5.1c3.1,0,3.9,2.7,3.9,4.4c0,0.3,0,0.6,0,0.8L43.6,29L43.6,29z M48.6,27.8
				c0-1.1-0.4-2.8-2.4-2.8c-1.7,0-2.5,1.6-2.6,2.8H48.6z"/>
			<path class="st7" d="M59.8,19.6V31c0,0.8,0,1.8,0.1,2.4h-1.5l-0.1-1.7h0c-0.5,1-1.7,1.8-3.2,1.8c-2.3,0-4-1.9-4-4.8
				c0-3.1,1.9-5.1,4.2-5.1c1.4,0,2.4,0.7,2.8,1.4h0v-5.6L59.8,19.6L59.8,19.6z M58.1,27.8c0-0.2,0-0.5-0.1-0.7c-0.3-1.1-1.2-2-2.5-2
				c-1.8,0-2.8,1.6-2.8,3.7c0,1.9,0.9,3.5,2.8,3.5c1.1,0,2.2-0.7,2.5-2c0-0.2,0.1-0.5,0.1-0.7V27.8z"/>
			<path class="st7" d="M66.1,33.4c0-0.7,0.1-1.6,0.1-2.4V19.6h1.7v5.9h0c0.6-1,1.7-1.7,3.2-1.7c2.4,0,4,2,4,4.8
				c0,3.4-2.1,5.1-4.2,5.1c-1.4,0-2.4-0.5-3.1-1.8h0l-0.1,1.6H66.1z M67.9,29.6c0,0.2,0,0.4,0.1,0.6c0.3,1.2,1.3,2,2.6,2
				c1.8,0,2.9-1.5,2.9-3.6c0-1.9-1-3.5-2.8-3.5c-1.2,0-2.3,0.8-2.6,2.1c0,0.2-0.1,0.4-0.1,0.7L67.9,29.6
				C67.9,29.6,67.9,29.6,67.9,29.6z"/>
			<path class="st7" d="M77,24l2,5.6c0.2,0.6,0.4,1.4,0.6,1.9h0c0.2-0.6,0.3-1.3,0.6-2l1.9-5.5H84l-2.6,6.7c-1.2,3.2-2,4.9-3.2,5.9
				c-0.8,0.7-1.7,1-2.1,1.1l-0.4-1.4c0.4-0.1,1-0.4,1.5-0.8c0.5-0.3,1-1,1.4-1.9c0.1-0.2,0.1-0.3,0.1-0.4s0-0.2-0.1-0.4L75.1,24
				L77,24L77,24z"/>
		</g>
		<g>
			<path class="st7" d="M32.2,39.8L27,52.9l-2.1-11.2c-0.3-1.3-1.2-2-2.3-2h-8.5L14,40.4c1.7,0.4,3.7,1,4.9,1.7
				c0.7,0.4,1,0.7,1.2,1.7l4,15.4h5.3l8.1-19.3L32.2,39.8L32.2,39.8z"/>
			<polygon class="st7" points="39.6,39.8 35.5,59.1 40.5,59.1 44.6,39.8 			"/>
			<path class="st7" d="M51.2,45.2c0-0.7,0.7-1.4,2.1-1.6c0.7-0.1,2.7-0.2,4.9,0.9l0.9-4.1c-1.2-0.4-2.7-0.9-4.7-0.9
				c-4.9,0-8.4,2.6-8.5,6.4c0,2.8,2.5,4.3,4.4,5.2c2,1,2.6,1.5,2.6,2.4c0,1.3-1.6,1.9-3,1.9c-2.5,0-4-0.7-5.1-1.2l-0.9,4.2
				c1.2,0.5,3.3,1,5.5,1c5.2,0,8.7-2.6,8.7-6.6C58.2,47.8,51.1,47.5,51.2,45.2"/>
			<path class="st7" d="M65.6,52.3l2.7-7.2l1.5,7.2H65.6z M67.5,39.8c-1,0-1.8,0.6-2.1,1.4l-7.5,17.9h5.2l1-2.9h6.4l0.6,2.9h4.6
				l-4-19.3L67.5,39.8L67.5,39.8z"/>
		</g>
	</g>
	<g id="layer101">
		<path class="st9" d="M791.6,49.7c-0.2-0.2-0.2-0.4,0-0.7c0.1-0.2,1.7-1.3,2.9-2.2c0.2-0.1,0.5-0.4,0.8-0.6
			c3.4-2.4,7.1-4.9,9.8-6.5c3.5-2.1,7.5-4,9.5-4.7c0.2-0.1,0.7-0.3,1.2-0.5c1.8-0.7,3.6-1.3,6.7-2.1c1.1-0.3,3.1-0.7,4.4-0.9
			c1.2-0.2,1.5-0.2,1.5,0.1c0,0.2-0.3,0.4-1.4,0.8c-1.6,0.6-1.8,0.7-3.2,1.4c-1.5,0.8-3.1,1.7-4.9,2.9c-1.2,0.8-3.2,2.3-3.6,2.7
			c-0.1,0.1-0.8,0.7-1.5,1.2c-3,2.4-5.6,4.9-8.2,8.1l-1,1.2h-6.5C792,49.9,791.7,49.9,791.6,49.7z"/>
		<path class="st9" d="M773.6,30.8c0,0,0-0.1,0.1-0.2c0.1-0.1,0.1-0.1,0.1-0.1c0,0,0,0.1-0.1,0.2C773.6,30.8,773.6,30.8,773.6,30.8z
			"/>
	</g>
	<g id="layer102">
		<path class="st10" d="M809.7,67.4c-0.8-0.2-0.8-0.2-0.7-0.9c0-0.3,0.1-0.6,0.1-0.7c0.1-0.1,0.2-0.1,0.6,0.1
			c0.7,0.3,1.6,0.3,2.1,0.1c0.4-0.2,0.7-0.6,0.7-1.1v-0.4l-0.2,0.2c-0.5,0.5-1.7,0.7-2.5,0.3c-1.1-0.5-1.7-1.9-1.4-3.4
			c0.2-1,0.6-1.7,1.3-2.2c0.3-0.2,0.5-0.2,1-0.2c0.8,0,1.2,0.1,1.6,0.4l0.3,0.3l0-0.3l0-0.3h0.8h0.8l0,3.1c0,2.5,0,3.2-0.1,3.5
			c-0.2,0.8-0.9,1.5-1.7,1.8C811.8,67.6,810.4,67.6,809.7,67.4z M811.7,63.5c0.5-0.2,0.7-0.7,0.7-1.6c0-0.7-0.1-1-0.5-1.3
			c-0.2-0.2-0.3-0.2-0.7-0.2c-0.4,0-0.5,0-0.7,0.3c-0.3,0.3-0.4,0.7-0.4,1.3c0,0.8,0.2,1.3,0.8,1.5
			C811.2,63.7,811.4,63.7,811.7,63.5z"/>
		<path class="st10" d="M762.4,65c-1.2-0.4-2-1.5-2-3c0-1.9,1.2-3.1,3.1-3.1c0.6,0,1.3,0.2,1.7,0.4c1.1,0.7,1.6,2,1.4,3.3
			c-0.2,1.3-0.9,2.1-2,2.4C764.1,65.2,762.9,65.2,762.4,65z M764.2,63.6c0.6-0.4,0.8-1.4,0.6-2.3c-0.1-0.5-0.3-0.8-0.7-0.9
			c-0.6-0.2-1.2-0.1-1.5,0.5c-0.2,0.3-0.2,0.4-0.2,1.2c0,0.8,0,0.9,0.2,1.1C762.9,63.8,763.6,64,764.2,63.6z"/>
		<path class="st10" d="M771.9,65c-0.5-0.2-1.1-0.8-1.3-1.3c-0.2-0.4-0.2-0.5-0.2-1.6s0-1.1,0.2-1.6c0.3-0.6,0.8-1.1,1.3-1.3
			c0.8-0.3,1.8-0.3,2.3,0.2l0.3,0.2V58v-1.6h0.9h0.9v4.3V65h-0.7h-0.7l0-0.3l0-0.3l-0.3,0.2c-0.2,0.1-0.4,0.3-0.6,0.4
			C773.2,65.2,772.4,65.2,771.9,65z M773.6,63.6c0.2-0.1,0.4-0.3,0.5-0.4c0.2-0.3,0.2-0.4,0.2-1.1c0-0.6,0-0.9-0.1-1.1
			c-0.2-0.3-0.6-0.6-1-0.6c-0.5,0-0.7,0.2-1,0.7c-0.2,0.4-0.2,0.5-0.2,1.1c0,0.8,0.3,1.2,0.7,1.4C773.2,63.8,773.2,63.8,773.6,63.6z
			"/>
		<path class="st10" d="M779,65c-0.9-0.3-1.4-0.8-1.8-1.7c-0.2-0.6-0.2-1.9,0-2.5c0.4-1.1,1.5-1.8,2.9-1.8c1.4,0,2.4,0.6,2.9,1.8
			c0.3,0.7,0.3,1.9,0,2.6c-0.3,0.7-0.9,1.3-1.5,1.6C780.9,65.2,779.6,65.2,779,65z M780.7,63.7c0.2-0.1,0.3-0.3,0.5-0.5
			c0.2-0.3,0.2-0.5,0.2-1.1c0-0.6,0-0.8-0.2-1.1c-0.3-0.6-0.9-0.8-1.6-0.5c-0.3,0.1-0.4,0.2-0.5,0.6c-0.2,0.4-0.2,0.6-0.2,1.1
			c0,0.5,0,0.7,0.2,1C779.4,63.7,780.1,64,780.7,63.7z"/>
		<path class="st10" d="M791.4,65c-0.5-0.2-1-0.7-1.1-1.2c-0.2-0.8,0-1.6,0.6-2c0.5-0.4,1-0.5,2.1-0.6l1.1,0V61c0-0.7-1.1-1-2.3-0.6
			c-0.8,0.3-0.8,0.3-0.8-0.4c0-0.6,0-0.6,0.2-0.8c0.5-0.3,2.6-0.4,3.4-0.2c0.4,0.1,0.9,0.5,1.1,1l0.2,0.4v2.3V65h-0.8h-0.8l0-0.3
			l0-0.3l-0.2,0.2c-0.1,0.1-0.4,0.3-0.6,0.4C792.8,65.2,791.9,65.2,791.4,65z M793.4,63.7c0.3-0.2,0.5-0.4,0.5-0.9l0-0.4l-0.7,0
			c-0.8,0.1-1.1,0.2-1.3,0.5c-0.1,0.3,0,0.7,0.2,0.8C792.5,63.9,793.2,63.9,793.4,63.7z"/>
		<path class="st10" d="M821.5,65c-0.6-0.2-1.3-0.8-1.6-1.4c-0.2-0.4-0.2-0.5-0.2-1.5c0-1,0-1.1,0.2-1.4c0.5-1.1,1.5-1.7,2.9-1.7
			c1.4,0,2.3,0.6,2.8,1.8c0.2,0.4,0.2,0.5,0.2,1.4c0,0.9,0,1-0.2,1.4c-0.3,0.6-0.9,1.2-1.5,1.4C823.4,65.2,822.2,65.2,821.5,65z
			 M823.4,63.6c0.4-0.2,0.6-0.9,0.6-1.6c0-1.1-0.6-1.8-1.4-1.8c-0.7,0.1-1.1,0.6-1.2,1.6c0,0.9,0.2,1.4,0.7,1.8
			C822.4,63.9,823,63.8,823.4,63.6z"/>
		<path class="st10" d="M838.1,65.1c-0.7-0.2-1.4-0.9-1.6-1.7c-0.2-0.7-0.3-1.8,0-2.5c0.3-0.9,0.9-1.6,1.7-1.8
			c0.8-0.2,1.7-0.1,2.1,0.3l0.2,0.2l0-1.6l0-1.6h0.8h0.8v4.3V65h-0.7h-0.7l0-0.3l0-0.3l-0.2,0.2c-0.3,0.4-0.8,0.5-1.5,0.6
			C838.6,65.1,838.2,65.1,838.1,65.1z M839.9,63.5c0.3-0.2,0.6-0.9,0.6-1.5c0-1-0.4-1.6-1.2-1.6c-0.3,0-0.4,0-0.6,0.2
			c-0.5,0.5-0.7,1.6-0.3,2.4C838.6,63.7,839.3,63.9,839.9,63.5z"/>
		<path class="st10" d="M845.9,65c-0.2-0.1-0.4-0.2-0.6-0.4l-0.3-0.2l0,0.3l0,0.3h-0.8h-0.8v-4.3v-4.3h0.9h0.9l0,1.6l0,1.6l0.2-0.2
			c0.4-0.4,1.5-0.5,2.3-0.3c0.4,0.1,0.9,0.6,1.2,1c0.4,0.7,0.5,2.1,0.3,3c-0.2,0.9-0.8,1.5-1.6,1.9C847.2,65.2,846.3,65.2,845.9,65z
			 M846.9,63.5c0.6-0.4,0.8-1.8,0.4-2.6c-0.2-0.4-0.4-0.5-0.9-0.5c-0.5,0-0.8,0.1-1,0.6c-0.1,0.3-0.2,0.5-0.2,1
			c0,0.7,0.1,1.1,0.5,1.4C846,63.7,846.5,63.8,846.9,63.5z"/>
		<path class="st10" d="M851.3,65.1c-0.9-0.3-1.3-0.9-1.3-1.8c0-0.5,0.2-1,0.6-1.3c0.4-0.4,1-0.6,2.2-0.6c1.1,0,1.1,0,1-0.5
			c-0.2-0.7-1.7-0.8-2.7-0.2c-0.1,0.1-0.2,0.1-0.3,0.1c0,0-0.1-0.3-0.1-0.7c0-0.6,0-0.7,0.2-0.7c0.4-0.1,1.4-0.3,2-0.3
			c1.1,0,1.8,0.2,2.3,0.8c0.4,0.5,0.5,0.8,0.5,3.2V65h-0.9h-0.9l0-0.3c0-0.2,0-0.3-0.1-0.1c-0.3,0.3-0.7,0.5-1.5,0.5
			C851.8,65.1,851.4,65.1,851.3,65.1z M853.2,63.8c0.3-0.2,0.5-0.5,0.6-1l0.1-0.3l-0.8,0.1c-1.1,0.1-1.4,0.3-1.4,0.8
			C851.7,63.8,852.5,64.1,853.2,63.8z"/>
		<path class="st10" d="M750,65c0-0.1,0-1.9,0-4l0-3.9h1.4h1.4l0.2,0.5c0.1,0.3,0.4,1.1,0.6,1.9s0.6,1.7,0.7,2.2
			c0.1,0.5,0.3,0.8,0.3,0.8c0,0,0.1-0.3,0.2-0.6c0.1-0.3,0.3-1,0.5-1.5s0.4-1,0.4-1.2c0.3-0.9,0.7-1.9,0.8-2
			c0.1-0.1,0.4-0.1,1.5-0.1l1.4,0v4v4h-0.9h-0.9l0-3l0-3l-1,3l-1,3l-0.8,0c-0.4,0-0.8,0-0.9-0.1c-0.1-0.1-0.4-1-1.5-4.2l-0.6-1.9
			l0,3.1l0,3.1l-0.8,0C750.3,65.1,750.1,65,750,65z"/>
		<path class="st10" d="M767.6,65c0-0.1,0-2,0-4.3l0-4.2h0.9h0.9v4.3V65l-0.8,0C767.8,65.1,767.6,65,767.6,65z"/>
		<path class="st10" d="M785.6,64.8c0-0.1-0.1-0.3-0.2-0.5c-0.2-0.6-1.3-3.6-1.8-4.7c-0.1-0.3-0.2-0.5-0.2-0.6
			c0.1-0.1,1.8-0.1,1.9,0c0,0,0.4,1,0.7,2l0.6,2l0.6-1.7c0.3-0.9,0.6-1.9,0.7-2l0.1-0.3l0.8,0c0.4,0,0.8,0,0.9,0
			c0.1,0,0,0.2-0.2,0.8c-0.1,0.4-0.3,0.8-0.3,0.9c0,0.1-0.2,0.7-0.4,1.2c-0.2,0.6-0.6,1.5-0.8,2l-0.4,1l-1,0l-1,0L785.6,64.8z"/>
		<path class="st10" d="M799.6,65c0-0.1,0.6-1.6,2.4-6.1c0.7-1.6,0.7-1.7,0.8-1.8c0.1-0.1,0.4-0.1,1-0.1c0.9,0,1,0,1,0.2
			c0.1,0.3,0.6,1.4,0.7,1.8c0.1,0.2,0.4,1.1,0.8,2s0.7,1.8,0.8,2c0.1,0.3,0.3,0.8,0.7,1.6c0.1,0.3,0.1,0.4,0,0.4c-0.1,0-0.5,0-1,0
			l-0.9,0l-0.2-0.7c-0.1-0.4-0.3-0.8-0.3-0.9l-0.1-0.2h-1.5h-1.5l-0.1,0.3c-0.1,0.2-0.2,0.5-0.3,0.9l-0.2,0.6l-0.9,0
			C800.1,65,799.7,65,799.6,65z M804.7,61.7c0-0.1-0.3-0.9-0.9-2.4l-0.1-0.3l-0.2,0.5c-0.1,0.2-0.3,0.8-0.4,1.3
			c-0.2,0.5-0.3,0.9-0.3,1c0,0.1,0.2,0.1,0.9,0.1C804.6,61.8,804.7,61.8,804.7,61.7z"/>
		<path class="st10" d="M815.5,65c0-0.1,0-1.4,0-3l0-2.9h0.8h0.8l0,0.4l0,0.4l0.2-0.3c0.1-0.2,0.4-0.3,0.6-0.4
			c0.4-0.2,1-0.2,1.2-0.1c0.1,0.1,0.1,0.3,0.1,0.6c0,0.3,0,0.5-0.1,0.6s-0.3,0.1-0.5,0.1c-0.6,0-0.9,0.2-1.1,0.7
			c-0.2,0.3-0.2,0.5-0.2,2.2l0,1.8l-0.8,0C815.7,65.1,815.5,65,815.5,65z"/>
		<path class="st10" d="M826.8,65c0-0.1,0-1.4,0-3l0-2.9h0.9h0.9v3v3l-0.8,0C827,65.1,826.8,65,826.8,65z"/>
		<path class="st10" d="M829.8,65c0-0.1,0-1.4,0-3l0-2.9h0.8h0.8l0,0.3l0,0.3l0.2-0.2c0.5-0.5,1.5-0.7,2.3-0.4
			c0.5,0.1,0.9,0.5,1.2,0.9c0.2,0.3,0.2,0.4,0.2,2.7V65h-0.9h-0.9l0-2c0-1.7-0.1-2-0.2-2.2c-0.2-0.3-0.4-0.4-0.9-0.3
			c-0.4,0-0.6,0.2-0.9,0.7c-0.2,0.3-0.2,0.4-0.2,2.1l0,1.8l-0.8,0C830,65.1,829.8,65,829.8,65z"/>
		<path class="st10" d="M856.8,65c0-0.1,0-1.4,0-3l0-2.9h0.8h0.8l0,0.3l0,0.3l0.3-0.3c1-0.9,2.9-0.6,3.5,0.6
			c0.1,0.3,0.2,0.4,0.1,2.6l0,2.3h-0.8h-0.8l0-2c0-2.2-0.1-2.4-0.5-2.6c-0.3-0.1-0.8,0-1.1,0.2c-0.5,0.3-0.5,0.5-0.5,2.5l0,1.9
			l-0.8,0C857,65.1,856.8,65,856.8,65z"/>
		<path class="st10" d="M863.7,65c0-0.1,0-2,0-4.3l0-4.2h0.9h0.9l0,2.4l0,2.4l0.8-1.1l0.8-1.1l0.9,0c0.5,0,0.9,0,1,0
			c0,0-0.4,0.7-1,1.4l-1.1,1.3l0.5,0.7c1.5,2,1.8,2.4,1.7,2.5c0,0-0.5,0.1-1,0.1h-1l-0.7-1c-0.4-0.6-0.8-1.2-0.9-1.4l-0.2-0.3l0,1.3
			l0,1.3l-0.8,0C863.9,65.1,863.7,65,863.7,65z"/>
		<path class="st10" d="M826.8,58.3c0-0.1,0-0.4,0-0.9l0-0.8h0.9h0.9v0.9v0.9l-0.8,0C827,58.4,826.8,58.4,826.8,58.3z"/>
		<path class="st10" d="M750,47.1c0-0.1,0.3-1,0.6-2.1c0.4-1.1,1-3.1,1.5-4.5c0.5-1.4,1.4-4.1,2-6c0.6-1.9,1.2-3.5,1.2-3.7
			c0-0.1,0.7-2.2,1.5-4.6c0.8-2.4,1.6-4.8,1.8-5.3c0.4-1.1,0.6-1.6,1.1-2.2c0.4-0.5,1.1-1,1.8-1.3l0.5-0.2l3.8,0l3.8,0l0.1,0.2
			c0,0.1,0.2,0.8,0.3,1.5c0.1,0.7,0.3,1.8,0.4,2.3c0.1,0.5,0.3,1.4,0.4,2s0.3,1.5,0.4,2c0.7,3.3,0.9,4.9,1,5.5
			c0.1,0.6,0.2,1.5,0.2,1.6c0.1,0.2,0.2,0,0.3-0.3c0.4-1.2,5.9-12.4,6.5-13.2c0.4-0.6,1.2-1.1,1.9-1.4l0.6-0.2l4.3,0
			c2.7,0,4.3,0,4.4,0.1c0.1,0.1,0.2,2.1,0.2,6.3c0,1.2,0.1,5.2,0.2,9c0.3,11,0.4,14.3,0.3,14.4c0,0.1-0.5,0.1-4.4,0.1
			c-3.1,0-4.4,0-4.4-0.1c0,0-0.1-4-0.1-8.8c0-4.8-0.1-8.7-0.1-8.7c0,0-0.2,0.2-0.3,0.6c-0.4,0.9-1.8,3.7-2.5,5
			c-0.3,0.6-0.9,1.7-1.3,2.4c-0.4,0.8-1,1.8-1.2,2.4c-0.5,0.9-1,1.9-2.6,5c-0.6,1.1-0.9,1.5-1.6,1.8l-0.5,0.3h-2.2h-2.2l-0.3-1.2
			c-0.3-1.2-0.4-1.9-0.8-3.9c-0.1-0.5-0.3-1.3-0.4-1.8c-0.1-0.5-0.3-1.3-0.4-1.9c-0.1-0.5-0.3-1.5-0.4-2c-0.1-0.5-0.3-1.5-0.4-2
			c-0.1-0.5-0.3-1.4-0.4-1.9c-0.1-0.5-0.3-1.2-0.3-1.7c-0.2-1.2-0.2-1.2-0.3-1.2c0,0-0.2,0.6-0.4,1.4c-0.4,1.8-0.5,1.9-2,6.8
			c-0.3,0.8-0.5,1.6-0.6,1.8c-0.1,0.2-0.3,0.9-0.5,1.7c-0.2,0.7-0.7,2-0.9,2.9c-0.3,0.9-0.6,1.7-0.7,1.9c-0.2,0.4-0.6,0.7-1.1,1
			l-0.4,0.2h-3.7C750.7,47.2,750.1,47.2,750,47.1z"/>
		<path class="st10" d="M791.7,47.1c0-0.1,0.2-0.5,0.7-1.4c0.1-0.2,0.3-0.5,0.4-0.7c0.1-0.2,0.3-0.5,0.4-0.7
			c0.4-0.6,0.5-0.9,0.8-1.4c0.2-0.3,0.4-0.7,0.5-0.8c0.2-0.3,0.4-0.6,0.7-1.3c0.1-0.3,0.3-0.6,0.4-0.7c0.3-0.6,0.6-1.1,0.8-1.5
			c0.1-0.2,0.3-0.5,0.4-0.7s0.3-0.5,0.4-0.7s0.3-0.6,0.4-0.7c0.3-0.6,0.6-1.1,0.8-1.5c0.1-0.2,0.3-0.6,0.4-0.7
			c0.1-0.2,0.3-0.5,0.4-0.7c0.1-0.2,0.3-0.5,0.3-0.5c0,0,0.2-0.4,0.4-0.7c0.2-0.3,0.4-0.7,0.5-0.9c0.6-1.1,1.2-2.2,1.5-2.7
			c0.2-0.3,0.4-0.7,0.5-0.9c0.1-0.1,1.2-2.1,2.4-4.4c1.3-2.3,2.4-4.2,2.6-4.4c0.4-0.5,1.2-1,1.8-1.3l0.6-0.2l4.7,0
			c3.3,0,4.7,0,4.8,0.1c0.1,0,0.1,0.2,0.2,0.4c0,0.3,0.3,1.2,0.7,2.9c0.1,0.3,0.3,1.2,0.4,1.8c0.2,0.7,0.3,1.5,0.4,1.8
			c0.1,0.3,0.2,1,0.4,1.5c0.1,0.5,0.3,1.3,0.4,1.8c0.2,0.9,0.9,4,1.1,4.6c0.1,0.4,0.1,0.4-0.3,0.5c-1.5,0.3-5.9,1.8-7.6,2.5
			c-0.2,0.1-0.3,0.1-0.4,0.1c-0.1-0.1-0.2-0.8-1-5.2c-0.1-0.5-0.3-1.5-0.4-2.2c-0.1-0.7-0.3-1.4-0.3-1.7c-0.1-0.3-0.1-0.5-0.2-0.5
			c-0.1,0-0.2,0.2-0.2,0.4c-0.1,0.2-0.4,0.9-0.7,1.5c-0.3,0.6-0.7,1.5-0.9,1.9s-0.6,1.4-1,2.1c-0.3,0.7-0.9,1.9-1.2,2.6
			c-0.3,0.7-0.8,1.7-1,2.2c-0.2,0.5-0.5,1.1-0.6,1.3c-0.2,0.4-0.2,0.4-1,0.8c-0.9,0.5-1.5,0.8-1.9,1c-0.1,0.1-0.6,0.4-1.1,0.6
			c-0.5,0.3-1.2,0.7-1.6,1c-0.7,0.4-1,0.6-2.1,1.3c-1,0.6-3,2-4,2.7c-0.6,0.4-1.1,0.8-1.2,0.9c-0.1,0.1-0.5,0.3-0.8,0.6
			c-0.6,0.4-0.7,0.5-1,0.5C791.9,47.2,791.8,47.1,791.7,47.1z"/>
		<path class="st10" d="M816.7,47.1c0-0.1-0.2-1-0.7-3.4c-0.2-1.1-0.5-2.5-0.6-3c-0.1-0.5-0.2-1.1-0.2-1.2c0-0.2,0.2-0.3,1.2-1.1
			c1.5-1.1,3.5-2.4,4.9-3.3c1.6-1,1.7-1,1.8-0.8c0.1,0.1,0.1,0.3,0.2,0.6c0.1,0.3,0.2,0.9,0.3,1.4c0.4,1.6,0.6,2.5,1,4.3
			c0.5,2.1,1.2,5.1,1.4,5.9c0.1,0.3,0.1,0.6,0.1,0.6s-2.1,0-4.7,0C817.8,47.2,816.7,47.2,816.7,47.1z"/>
		<path class="st10" d="M827.6,47.1c0,0,0-0.3,0.1-0.6c0.1-0.7,0.5-2.9,1.1-6.2c0.4-2.4,0.6-3.5,0.8-4.7c0.2-1.3,0.4-2.6,0.8-4.6
			c0.1-0.6,0.3-1.6,0.4-2.2c0.1-0.6,0.3-1.6,0.4-2.2c0.2-1,0.4-2.3,0.9-4.9c0.5-3,0.5-3,1-3.6c0.1-0.1,0.4-0.4,0.6-0.5l0.4-0.2
			l3.9,0c2.1,0,3.9,0,4,0c0.1,0,0,0.3-0.1,1c-0.1,0.5-0.3,1.5-0.4,2.2s-0.3,1.7-0.4,2.3c-0.1,0.6-0.3,1.6-0.4,2.2
			c-0.1,0.6-0.3,1.8-0.4,2.5c-0.5,2.8-0.9,4.9-1.2,6.8c-0.3,1.8-0.6,3.2-0.8,4.7c-0.2,1.4-0.5,2.7-0.8,4.6c-0.1,0.6-0.2,1.3-0.3,1.5
			c-0.2,0.9-0.6,1.5-1.3,1.9l-0.4,0.2h-3.9C829.3,47.2,827.6,47.1,827.6,47.1z"/>
		<path class="st10" d="M839.7,47.1c-0.1-0.1,0-0.1,0.3-1.9c0.1-0.7,0.3-1.7,0.4-2.4c0.3-1.8,0.6-3.3,0.8-4.5
			c0.1-0.6,0.3-1.5,0.4-2.2c0.4-2.3,0.7-3.9,0.9-4.9c0.2-1,0.4-2.4,0.8-4.5c0.1-0.6,0.3-1.6,0.4-2.1c0.1-0.5,0.2-1.1,0.2-1.3
			c0.1-0.4,0.4-2,0.6-3.6c0.2-1,0.2-1.2,0.5-1.5c0.3-0.5,0.9-0.9,1.5-0.9c0.2,0,3.7,0,7.7,0c7.7,0,7.5,0,9.2,0.4
			c2.9,0.6,5,2.4,5.6,4.9c0.3,1.3,0.3,2.5,0,3.9c-0.5,1.8-1.8,3.4-3.6,4.3c-0.6,0.3-1.6,0.7-2.2,0.8c-0.3,0.1-0.2,0.1,0.2,0.2
			c0.5,0.1,1.5,0.5,2,0.8c0.9,0.5,1.4,0.9,2,1.7c1.6,1.9,1.8,5.3,0.4,7.9c-0.3,0.7-0.6,1-1.2,1.7c-1.7,2-3.9,2.9-7.9,3.2
			C857.3,47.2,839.8,47.2,839.7,47.1z M855.9,41.1c1-0.1,2.2-0.4,2.6-0.7c0.5-0.3,0.9-0.8,1.1-1.3c0.2-0.4,0.2-0.6,0.2-1.4
			c0-1.2-0.1-1.6-0.5-2.1c-0.8-0.9-2.2-1.1-6.4-1.1c-2.1,0-2.3,0-2.3,0.1c0,0.1-0.1,0.4-0.1,0.6c0,0.3-0.2,1-0.3,1.6
			c-0.1,0.6-0.3,1.6-0.4,2.2c-0.1,0.6-0.2,1.3-0.2,1.5s-0.1,0.4-0.1,0.5c0,0.1,0.4,0.1,2.8,0.1C853.7,41.1,855.4,41.1,855.9,41.1z
			 M857.4,28.7c0.9-0.1,1.7-0.3,2.1-0.6c1.1-0.7,1.6-2.7,0.8-3.8c-0.3-0.4-0.7-0.6-1.4-0.9c-0.5-0.2-0.8-0.2-3.5-0.2l-3,0l0,0.4
			c-0.1,0.4-0.2,1.6-0.6,3.8c-0.1,0.6-0.2,1.2-0.2,1.2c0,0.1,0.3,0.1,2.5,0.1C855.7,28.8,856.8,28.7,857.4,28.7z"/>
	</g>
	<rect x="553" y="20.1" class="st11" width="17.5" height="31.4"/>
	<path class="st12" d="M554.1,35.8c0-6.4,3-12,7.6-15.7c-3.4-2.7-7.7-4.3-12.3-4.3c-11,0-19.9,8.9-19.9,19.9c0,11,8.9,20,19.9,20
		c4.7,0,8.9-1.6,12.3-4.3C557.1,47.8,554.1,42.1,554.1,35.8"/>
	<path class="st13" d="M594,35.8c0,11-8.9,20-19.9,20c-4.7,0-8.9-1.6-12.3-4.3c4.6-3.7,7.6-9.3,7.6-15.7c0-6.4-3-12-7.6-15.7
		c3.4-2.7,7.7-4.3,12.3-4.3C585.1,15.8,594,24.8,594,35.8"/>
	<path class="st14" d="M576.4,60.3c0.2,0,0.6,0,0.8,0.1l-0.4,1.1c-0.2-0.1-0.5-0.1-0.7-0.1c-0.8,0-1.1,0.5-1.1,1.4v3h-1.2v-5.3h1.1
		v0.6C575.3,60.6,575.7,60.3,576.4,60.3 M572.1,61.5h-1.9v2.4c0,0.5,0.2,0.9,0.8,0.9c0.3,0,0.7-0.1,1-0.3l0.3,1
		c-0.4,0.3-0.9,0.4-1.4,0.4c-1.4,0-1.8-0.7-1.8-2v-2.4H568v-1.1h1.1v-1.6h1.2v1.6h1.9L572.1,61.5L572.1,61.5z M557.3,62.6
		c0.1-0.8,0.6-1.3,1.4-1.3c0.7,0,1.2,0.5,1.3,1.3H557.3z M561.3,63.1c0-1.7-1-2.8-2.5-2.8c-1.5,0-2.6,1.1-2.6,2.8
		c0,1.7,1.1,2.8,2.7,2.8c0.8,0,1.5-0.2,2.2-0.7l-0.6-0.9c-0.4,0.4-1,0.6-1.5,0.6c-0.7,0-1.4-0.3-1.6-1.3h3.9
		C561.3,63.4,561.3,63.3,561.3,63.1 M566.4,61.8c-0.3-0.2-1-0.5-1.7-0.5c-0.6,0-1,0.2-1,0.6c0,0.4,0.4,0.5,0.9,0.5l0.5,0.1
		c1.2,0.2,1.8,0.7,1.8,1.6c0,1-0.9,1.7-2.4,1.7c-0.9,0-1.7-0.2-2.3-0.7l0.5-0.9c0.4,0.3,1,0.6,1.8,0.6c0.8,0,1.2-0.2,1.2-0.6
		c0-0.3-0.3-0.5-0.9-0.6l-0.5-0.1c-1.2-0.2-1.8-0.7-1.8-1.6c0-1.1,0.9-1.7,2.2-1.7c0.8,0,1.6,0.2,2.2,0.6L566.4,61.8z M580.6,61.4
		c-0.2,0-0.5,0-0.7,0.1c-0.2,0.1-0.4,0.2-0.5,0.4c-0.1,0.1-0.3,0.3-0.3,0.5c-0.1,0.2-0.1,0.4-0.1,0.7c0,0.3,0,0.5,0.1,0.7
		c0.1,0.2,0.2,0.4,0.3,0.5c0.1,0.1,0.3,0.3,0.5,0.3c0.2,0.1,0.4,0.1,0.7,0.1c0.2,0,0.5,0,0.7-0.1c0.2-0.1,0.4-0.2,0.5-0.3
		c0.2-0.2,0.3-0.3,0.4-0.5c0.1-0.2,0.1-0.4,0.1-0.7c0-0.3,0-0.5-0.1-0.7c-0.1-0.2-0.2-0.4-0.4-0.5c-0.1-0.1-0.3-0.3-0.5-0.4
		C581,61.5,580.8,61.4,580.6,61.4 M580.6,60.3c0.4,0,0.8,0.1,1.1,0.2c0.4,0.1,0.7,0.3,0.9,0.6c0.3,0.2,0.5,0.5,0.6,0.9
		c0.1,0.3,0.2,0.7,0.2,1.1s-0.1,0.8-0.2,1.1c-0.1,0.3-0.3,0.6-0.6,0.9c-0.3,0.3-0.6,0.4-0.9,0.6c-0.4,0.1-0.7,0.2-1.1,0.2
		c-0.4,0-0.8-0.1-1.1-0.2c-0.4-0.1-0.7-0.3-0.9-0.6c-0.3-0.2-0.5-0.5-0.6-0.9c-0.1-0.3-0.2-0.7-0.2-1.1s0.1-0.8,0.2-1.1
		c0.1-0.3,0.3-0.6,0.6-0.9c0.3-0.2,0.6-0.4,0.9-0.6C579.8,60.4,580.2,60.3,580.6,60.3 M550.6,63.1c0-0.9,0.6-1.7,1.6-1.7
		c1,0,1.6,0.7,1.6,1.7c0,1-0.6,1.7-1.6,1.7C551.2,64.8,550.6,64,550.6,63.1 M554.9,63.1v-2.7h-1.2v0.6c-0.4-0.5-0.9-0.8-1.7-0.8
		c-1.5,0-2.6,1.2-2.6,2.8c0,1.6,1.2,2.8,2.6,2.8c0.8,0,1.3-0.3,1.7-0.8v0.6h1.2V63.1z M548.4,65.8v-3.3c0-1.3-0.8-2.1-2.1-2.1
		c-0.7,0-1.4,0.2-1.9,0.9c-0.4-0.6-0.9-0.9-1.8-0.9c-0.6,0-1.1,0.2-1.6,0.8v-0.7H540v5.3h1.2v-2.9c0-0.9,0.5-1.4,1.3-1.4
		c0.8,0,1.2,0.5,1.2,1.4v2.9h1.2v-2.9c0-0.9,0.5-1.4,1.3-1.4c0.8,0,1.2,0.5,1.2,1.4v2.9L548.4,65.8L548.4,65.8z"/>
</g>
<g id="Слой_2">
	<g>
		<rect x="95" y="10" class="st15" width="1" height="57"/>
	</g>
	<g>
		<rect x="421" y="10" class="st15" width="1" height="57"/>
	</g>
</g>
</svg>
