<svg id="bc91f510-fc59-4d7c-8265-10aee5ad5f6d" data-name="Layer 1" xmlns="http://www.w3.org/2000/svg" viewBox="0 0 326.96398 245.086"><rect width="326.96398" height="245.086" style="fill:none"/><path d="M281.12652,392.543h-3.74121V349.6099h3.74121Zm27.293-42.9331a29.13251,29.13251,0,0,1,9.66016,1.50244,20.54648,20.54648,0,0,1,7.29883,4.29346,18.82,18.82,0,0,1,4.62988,6.76172,25.2182,25.2182,0,0,1,0,17.81738,18.81771,18.81771,0,0,1-4.62988,6.76221,20.53911,20.53911,0,0,1-7.29883,4.29345,29.11963,29.11963,0,0,1-9.66016,1.50244h-15.6709V349.6099ZM296.4898,353.167v35.81885h11.92969a24.72116,24.72116,0,0,0,8.28027-1.273,16.77658,16.77658,0,0,0,6.041-3.603,15.01988,15.01988,0,0,0,3.71094-5.64307,22.35822,22.35822,0,0,0,0-14.78125,15.157,15.157,0,0,0-3.71094-5.65771,16.49928,16.49928,0,0,0-6.041-3.60351,25.0103,25.0103,0,0,0-8.28027-1.25733Zm78.62891-4.04785a22.9764,22.9764,0,0,1,5.33691.61328,21.59118,21.59118,0,0,1,4.82911,1.76318,19.26217,19.26217,0,0,1,4.0791,2.77539,17.01629,17.01629,0,0,1,3.1123,3.68018l-3.12793,2.085a15.116,15.116,0,0,0-2.62207-3.03564,16.46188,16.46188,0,0,0-3.34277-2.3003,17.16143,17.16143,0,0,0-3.92481-1.45654,18.4674,18.4674,0,0,0-4.33984-.50586,19.03537,19.03537,0,0,0-7.12988,1.31836,16.99574,16.99574,0,0,0-5.73438,3.7417,17.48436,17.48436,0,0,0-3.833,5.7959,20.75876,20.75876,0,0,0,0,14.96533,17.47956,17.47956,0,0,0,3.833,5.7959,16.98717,16.98717,0,0,0,5.73438,3.74121,19.01642,19.01642,0,0,0,7.12988,1.31884,18.82143,18.82143,0,0,0,4.32422-.49072,16.685,16.685,0,0,0,3.91016-1.4414,16.42862,16.42862,0,0,0,3.34277-2.29981,14.76721,14.76721,0,0,0,2.62207-3.06689l3.06641,2.23877a18.18515,18.18515,0,0,1-3.17383,3.61865,19.80921,19.80921,0,0,1-4.04785,2.72949,21.03061,21.03061,0,0,1-4.76856,1.73242,23.97546,23.97546,0,0,1-14-1.02734,21.0249,21.0249,0,0,1-6.97656-4.52344,20.7449,20.7449,0,0,1-4.61524-6.93066,24.37945,24.37945,0,0,1,0-17.74023,20.71906,20.71906,0,0,1,4.61524-6.94629,21.03239,21.03239,0,0,1,6.97656-4.52344A23.13114,23.13114,0,0,1,375.11871,349.11918Zm28.85742,19.56494a11.02959,11.02959,0,0,1,2.00879-2.45313,10.72983,10.72983,0,0,1,2.499-1.70214,12.47573,12.47573,0,0,1,2.82129-.981,13.73253,13.73253,0,0,1,2.94434-.32227,14.39979,14.39979,0,0,1,4.9375.8125,11.13924,11.13924,0,0,1,3.84863,2.31543,10.13974,10.13974,0,0,1,2.48438,3.66455,12.79667,12.79667,0,0,1,.874,4.83008V392.543H422.898V375.92191a11.82475,11.82475,0,0,0-.61328-3.92578,7.84625,7.84625,0,0,0-1.80957-2.959,7.95928,7.95928,0,0,0-2.91309-1.85547,11.13969,11.13969,0,0,0-3.92578-.644,10.29636,10.29636,0,0,0-3.78711.68994,9.05808,9.05808,0,0,0-3.06641,1.96289,9.23841,9.23841,0,0,0-2.05468,3.03564,9.78042,9.78042,0,0,0-.752,3.8794V392.543H400.48V348.38285h3.49609Zm43.21-5.4585a13.11523,13.11523,0,0,1,5.35059,1.08887,12.68737,12.68737,0,0,1,4.26269,3.03565,14.43546,14.43546,0,0,1,2.83692,4.66162,16.86319,16.86319,0,0,1,1.07324,5.93408c0,.26562-.00488.5166-.01465.751q-.01611.353-.0459.69043H436.45269a12.40908,12.40908,0,0,0,1.11915,4.477,10.56851,10.56851,0,0,0,2.43847,3.32715,10.27733,10.27733,0,0,0,3.44922,2.07031,12.11156,12.11156,0,0,0,4.15527.70508,12.80771,12.80771,0,0,0,5.42871-1.104,15.19906,15.19906,0,0,0,4.32325-3.00537l1.87109,2.39209a17.14471,17.14471,0,0,1-2.80566,2.30029,14.98477,14.98477,0,0,1-2.91407,1.47168,14.37383,14.37383,0,0,1-3.0205.7666,22.31932,22.31932,0,0,1-3.09668.21484,15.28024,15.28024,0,0,1-5.82715-1.08886,13.55155,13.55155,0,0,1-4.59961-3.05127,13.79412,13.79412,0,0,1-3.00586-4.6919,16.37008,16.37008,0,0,1-1.07324-6.0415,16.12436,16.12436,0,0,1,1.08886-5.99512,14.25389,14.25389,0,0,1,3.00489-4.72265,13.576,13.576,0,0,1,4.53906-3.082A14.43286,14.43286,0,0,1,447.18609,363.22562Zm-.06152,3.09717a10.507,10.507,0,0,0-4.0332.75147,10.1079,10.1079,0,0,0-3.20411,2.08545,10.81345,10.81345,0,0,0-2.2539,3.17382,12.58872,12.58872,0,0,0-1.11914,4.04834h20.63867a12.47815,12.47815,0,0,0-1.0127-4.09424,10.31131,10.31131,0,0,0-2.1621-3.17382,9.61083,9.61083,0,0,0-6.85352-2.791Zm33.70117-3.09717a15.28264,15.28264,0,0,1,5.96485,1.14991,12.75909,12.75909,0,0,1,4.67675,3.32763l-2.26953,2.36133a12.53942,12.53942,0,0,0-3.78711-2.62207,11.372,11.372,0,0,0-4.67676-.93555,11.0531,11.0531,0,0,0-4.40039.874,10.80745,10.80745,0,0,0-3.542,2.42285,11.07176,11.07176,0,0,0-2.34668,3.67969,13.22753,13.22753,0,0,0,0,9.292,10.74987,10.74987,0,0,0,5.88867,6.07226,11.0531,11.0531,0,0,0,4.40039.874,11.31993,11.31993,0,0,0,4.73829-.98144,13.16042,13.16042,0,0,0,3.81738-2.60645l2.17773,2.39209a13.07123,13.07123,0,0,1-4.69238,3.32715,16.10344,16.10344,0,0,1-11.91406.01514,13.92431,13.92431,0,0,1-7.72754-7.835,16.58926,16.58926,0,0,1,0-11.82227,13.88961,13.88961,0,0,1,7.72754-7.85058A15.3168,15.3168,0,0,1,480.82574,363.22562Zm21.15918,12.63477h4.69238l12.14356-12.17481h4.416l-13.73828,13.61621L523.482,392.543H519.0357l-12.3584-13.52392h-4.69238V392.543h-3.49609V348.38285h3.49609Z" transform="translate(-232.51801 -183.457)"/><rect x="78.4951" y="43.6968" width="31.5" height="56.60639" style="fill:#ff5f00"/><path d="M313.01331,255.457a35.93747,35.93747,0,0,1,13.7499-28.30319,36,36,0,1,0,0,56.60639A35.938,35.938,0,0,1,313.01331,255.457Z" transform="translate(-232.51801 -183.457)" style="fill:#eb001b"/><path d="M385.00841,255.457a35.99867,35.99867,0,0,1-58.2452,28.3032,36.00517,36.00517,0,0,0,0-56.60639,35.99867,35.99867,0,0,1,58.2452,28.30319Z" transform="translate(-232.51801 -183.457)" style="fill:#f79e1b"/><path d="M381.57381,277.76469v-1.1589h.4673v-.2361H380.851v.2361h.4675v1.1589Zm2.3105,0v-1.3973h-.3648l-.4196.9611-.4197-.9611h-.365v1.3973h.2576v-1.054l.3935.9087h.2671l.3935-.911v1.0563Z" transform="translate(-232.51801 -183.457)" style="fill:#f79e1b"/></svg>