<?xml version="1.0" encoding="UTF-8"?>
<svg xmlns="http://www.w3.org/2000/svg" xmlns:xlink="http://www.w3.org/1999/xlink" width="198pt" height="198pt" viewBox="0 0 198 198" version="1.1">
<g id="surface1">
<path style=" stroke:none;fill-rule:nonzero;fill:rgb(100%,100%,100%);fill-opacity:1;" d="M 0 198 L 197.996094 198 L 197.996094 0.00390625 L 0 0.00390625 Z M 0 198 "/>
<path style=" stroke:none;fill-rule:nonzero;fill:rgb(10.198975%,12.199402%,43.899536%);fill-opacity:1;" d="M 0 198 L 197.996094 198 L 197.996094 99 L 0 99 Z M 0 198 "/>
<path style=" stroke:none;fill-rule:nonzero;fill:rgb(10.198975%,12.199402%,43.899536%);fill-opacity:1;" d="M 94.710938 27.683594 L 85.203125 72.144531 L 73.699219 72.144531 L 83.210938 27.683594 Z M 143.105469 56.390625 L 149.15625 39.695313 L 152.640625 56.390625 Z M 155.941406 72.144531 L 166.578125 72.144531 L 157.285156 27.683594 L 147.476563 27.683594 C 145.265625 27.683594 143.398438 28.964844 142.574219 30.941406 L 125.316406 72.144531 L 137.394531 72.144531 L 139.792969 65.503906 L 154.550781 65.503906 Z M 125.914063 57.628906 C 125.964844 45.894531 109.695313 45.246094 109.804688 40.003906 C 109.839844 38.410156 111.359375 36.710938 114.679688 36.277344 C 116.328125 36.066406 120.871094 35.894531 126.023438 38.269531 L 128.039063 28.835938 C 125.273438 27.835938 121.710938 26.871094 117.28125 26.871094 C 105.910156 26.871094 97.910156 32.910156 97.847656 41.566406 C 97.773438 47.96875 103.558594 51.535156 107.910156 53.667969 C 112.398438 55.847656 113.898438 57.246094 113.878906 59.191406 C 113.847656 62.175781 110.300781 63.496094 107 63.546875 C 101.214844 63.636719 97.859375 61.980469 95.1875 60.734375 L 93.097656 70.484375 C 95.789063 71.714844 100.75 72.785156 105.886719 72.84375 C 117.976563 72.84375 125.878906 66.871094 125.914063 57.628906 M 78.277344 27.683594 L 59.640625 72.144531 L 47.480469 72.144531 L 38.308594 36.660156 C 37.753906 34.480469 37.269531 33.675781 35.578125 32.753906 C 32.8125 31.253906 28.246094 29.847656 24.230469 28.972656 L 24.503906 27.683594 L 44.074219 27.683594 C 46.566406 27.683594 48.8125 29.34375 49.382813 32.214844 L 54.226563 57.945313 L 66.191406 27.683594 "/>
<path style=" stroke:none;fill-rule:nonzero;fill:rgb(100%,100%,100%);fill-opacity:1;" d="M 46.125 153.832031 C 47.425781 154.597656 49.457031 155.265625 51.554688 155.265625 C 54.152344 155.265625 55.617188 154.03125 55.617188 152.199219 C 55.617188 150.5 54.484375 149.503906 51.65625 148.46875 C 47.925781 147.167969 45.558594 145.171875 45.558594 141.972656 C 45.558594 138.277344 48.625 135.511719 53.519531 135.511719 C 55.953125 135.511719 57.71875 136.042969 58.882813 136.609375 L 57.917969 139.941406 C 57.085938 139.507813 55.519531 138.875 53.421875 138.875 C 50.824219 138.875 49.722656 140.242188 49.722656 141.574219 C 49.722656 143.308594 51.023438 144.105469 54.019531 145.238281 C 57.917969 146.738281 59.78125 148.703125 59.78125 151.898438 C 59.78125 155.53125 57.050781 158.628906 51.289063 158.628906 C 48.890625 158.628906 46.425781 157.964844 45.191406 157.230469 "/>
<path style=" stroke:none;fill-rule:nonzero;fill:rgb(100%,100%,100%);fill-opacity:1;" d="M 75.707031 148.335938 L 67.246094 148.335938 L 67.246094 154.929688 L 76.707031 154.929688 L 76.707031 158.296875 L 63.148438 158.296875 L 63.148438 135.84375 L 76.207031 135.84375 L 76.207031 139.210938 L 67.246094 139.210938 L 67.246094 145.003906 L 75.707031 145.003906 "/>
<path style=" stroke:none;fill-rule:nonzero;fill:rgb(100%,100%,100%);fill-opacity:1;" d="M 96.0625 157.628906 C 95.097656 158.09375 92.964844 158.628906 90.234375 158.628906 C 83.105469 158.628906 78.777344 154.164063 78.777344 147.335938 C 78.777344 139.941406 83.9375 135.511719 90.800781 135.511719 C 93.5 135.511719 95.398438 136.042969 96.230469 136.476563 L 95.363281 139.742188 C 94.296875 139.277344 92.800781 138.875 90.96875 138.875 C 86.402344 138.875 83.105469 141.742188 83.105469 147.136719 C 83.105469 152.066406 85.972656 155.199219 90.933594 155.199219 C 92.566406 155.199219 94.296875 154.863281 95.398438 154.398438 "/>
<path style=" stroke:none;fill-rule:nonzero;fill:rgb(100%,100%,100%);fill-opacity:1;" d="M 103.296875 135.84375 L 103.296875 148.933594 C 103.296875 153.332031 105.128906 155.363281 107.894531 155.363281 C 110.859375 155.363281 112.621094 153.332031 112.621094 148.933594 L 112.621094 135.84375 L 116.71875 135.84375 L 116.71875 148.667969 C 116.71875 155.597656 113.15625 158.660156 107.761719 158.660156 C 102.5625 158.660156 99.199219 155.765625 99.199219 148.703125 L 99.199219 135.84375 "/>
<path style=" stroke:none;fill-rule:nonzero;fill:rgb(100%,100%,100%);fill-opacity:1;" d="M 125.148438 146.070313 L 127.582031 146.070313 C 130.347656 146.070313 132.046875 144.605469 132.046875 142.375 C 132.046875 139.941406 130.347656 138.777344 127.683594 138.777344 C 126.382813 138.777344 125.550781 138.875 125.148438 138.976563 Z M 121.089844 136.175781 C 122.652344 135.878906 124.917969 135.679688 127.285156 135.679688 C 130.511719 135.679688 132.679688 136.210938 134.210938 137.476563 C 135.441406 138.507813 136.144531 140.074219 136.144531 142.007813 C 136.144531 144.90625 134.175781 146.871094 132.046875 147.601563 L 132.046875 147.703125 C 133.675781 148.300781 134.644531 149.867188 135.175781 152.03125 C 135.910156 154.832031 136.507813 157.429688 136.941406 158.296875 L 132.746094 158.296875 C 132.414063 157.628906 131.84375 155.796875 131.246094 153 C 130.578125 150.066406 129.546875 149.136719 127.214844 149.070313 L 125.148438 149.070313 L 125.148438 158.296875 L 121.089844 158.296875 "/>
<path style=" stroke:none;fill-rule:nonzero;fill:rgb(100%,100%,100%);fill-opacity:1;" d="M 152.269531 148.335938 L 143.808594 148.335938 L 143.808594 154.929688 L 153.269531 154.929688 L 153.269531 158.296875 L 139.710938 158.296875 L 139.710938 135.84375 L 152.769531 135.84375 L 152.769531 139.210938 L 143.808594 139.210938 L 143.808594 145.003906 L 152.269531 145.003906 "/>
</g>
</svg>
