<svg width="105" height="40" viewBox="0 0 105 40" fill="none" xmlns="http://www.w3.org/2000/svg">
  <path fill-rule="evenodd" clip-rule="evenodd" d="M20 5 5 10.03C7 26.67 12 35 20 35s13-8.32 15-24.97L20 5Zm0 29.06c-7.5 0-12.19-7.8-14.06-23.42L20 5.94l14.06 4.7C32.2 26.25 27.5 34.06 20 34.06Z" fill="#40C1AC"/>
  <path opacity=".3" d="m20 7.81 12.19 4.06c0 2.95-.96 7-2.88 12.19-1.9 5.18-5.02 7.9-9.31 8.13V7.8Z" fill="#40C1AC"/>
  <path d="M52.96 14.82h-1.71v-.69h1.7c.34 0 .6-.05.81-.16.2-.1.36-.25.45-.44.1-.18.14-.4.14-.64 0-.22-.04-.42-.14-.62-.1-.19-.24-.35-.45-.46-.2-.12-.47-.18-.8-.18h-1.51v5.7h-.85v-6.4h2.36c.48 0 .89.09 1.22.25.34.17.6.4.76.7.18.29.26.63.26 1 0 .41-.08.76-.26 1.05-.17.3-.42.52-.76.67a3 3 0 0 1-1.22.22ZM56.97 13.32v4.01h-.82v-4.75h.8l.02.74Zm1.48-.77v.76a2.04 2.04 0 0 0-.4-.04c-.19 0-.35.03-.5.09-.14.06-.26.14-.36.24-.1.11-.18.24-.24.38-.05.15-.09.3-.1.48l-.24.13c0-.29.03-.56.09-.81s.15-.47.27-.67c.12-.2.27-.35.45-.45a1.28 1.28 0 0 1 1.03-.11ZM58.9 15v-.1c0-.34.05-.66.15-.95.1-.3.24-.55.43-.77a2.11 2.11 0 0 1 1.58-.7c.33 0 .63.07.9.2.27.11.5.28.68.5.2.22.34.48.44.77.1.3.15.61.15.96v.1c0 .34-.05.66-.15.95-.1.3-.25.55-.44.77a2 2 0 0 1-1.57.69 2.04 2.04 0 0 1-2.02-1.46c-.1-.3-.15-.61-.15-.95Zm.81-.1v.1c0 .24.03.47.09.68.05.2.13.4.25.55.11.16.25.3.42.38.17.1.37.14.6.14.22 0 .41-.04.58-.14.17-.09.31-.22.42-.38.11-.16.2-.34.25-.55.06-.21.09-.44.09-.67v-.1c0-.24-.03-.46-.09-.67-.05-.2-.14-.4-.25-.56a1.18 1.18 0 0 0-1.01-.53c-.23 0-.42.05-.6.15-.16.1-.3.22-.41.38-.12.16-.2.35-.25.56-.06.21-.09.43-.09.67ZM66.15 16.75c.2 0 .37-.04.54-.12.16-.08.3-.19.4-.32a.9.9 0 0 0 .18-.48h.77c-.01.28-.1.54-.28.78a1.95 1.95 0 0 1-1.61.8c-.36 0-.67-.05-.94-.18-.26-.13-.48-.3-.66-.52-.17-.22-.3-.47-.39-.75a3.19 3.19 0 0 1-.12-.91v-.19c0-.32.04-.62.12-.9.1-.3.22-.54.4-.76.17-.22.39-.4.65-.52.27-.13.58-.2.94-.2a2 2 0 0 1 .98.24c.27.15.5.35.65.61.16.26.25.55.26.88h-.77c-.01-.2-.07-.37-.17-.53a1.08 1.08 0 0 0-.95-.52c-.25 0-.46.05-.63.15-.17.1-.3.22-.4.4-.1.16-.17.34-.2.54-.05.2-.07.4-.07.61v.19c0 .2.02.4.06.61.04.2.11.39.2.55.1.16.24.3.4.4.18.1.39.14.64.14ZM70.93 17.42c-.33 0-.63-.06-.9-.17a2.04 2.04 0 0 1-1.13-1.2c-.1-.29-.15-.6-.15-.93v-.18c0-.4.05-.73.17-1.04.11-.3.27-.56.46-.77a2 2 0 0 1 2.32-.47c.25.12.46.29.62.5.15.2.27.45.35.73.07.29.11.6.11.93v.36h-3.55v-.66h2.74v-.06a2.03 2.03 0 0 0-.13-.62 1.1 1.1 0 0 0-.36-.49c-.16-.13-.38-.2-.65-.2a1.1 1.1 0 0 0-.91.47c-.12.15-.2.34-.26.56-.06.22-.1.47-.1.76v.18c0 .23.04.44.1.64.06.2.15.37.27.52a1.36 1.36 0 0 0 1.04.48c.3 0 .54-.06.73-.18.2-.12.38-.27.53-.47l.49.39c-.1.16-.23.3-.4.44-.15.14-.34.26-.58.35-.22.09-.5.13-.8.13ZM76.5 16.07a.68.68 0 0 0-.08-.33.67.67 0 0 0-.31-.27 2.56 2.56 0 0 0-.7-.22c-.27-.06-.5-.12-.72-.2-.21-.08-.4-.17-.54-.28-.15-.1-.26-.23-.34-.38a1.19 1.19 0 0 1 0-1.05c.09-.16.2-.31.36-.44.16-.13.34-.23.56-.3.21-.08.46-.11.72-.11.38 0 .7.07.98.2.27.14.47.32.62.54.14.22.21.47.21.74h-.8a.7.7 0 0 0-.13-.38.87.87 0 0 0-.34-.31 1.1 1.1 0 0 0-.54-.12c-.22 0-.4.03-.55.1a.7.7 0 0 0-.3.26.65.65 0 0 0-.05.57c.03.07.09.13.17.2.08.05.19.1.33.15l.55.15c.4.09.71.2.96.32.26.12.44.27.57.45.12.18.18.4.18.65a1.24 1.24 0 0 1-.5 1.02c-.16.12-.36.22-.58.29-.23.07-.48.1-.75.1a2.3 2.3 0 0 1-1.07-.23 1.64 1.64 0 0 1-.66-.58 1.39 1.39 0 0 1-.22-.75h.82c0 .23.07.4.19.54.12.12.26.22.43.27a1.7 1.7 0 0 0 1.06 0 .78.78 0 0 0 .35-.25c.08-.1.12-.22.12-.35ZM81.15 16.07a.68.68 0 0 0-.08-.33.67.67 0 0 0-.31-.27 2.56 2.56 0 0 0-.7-.22c-.27-.06-.5-.12-.72-.2-.21-.08-.4-.17-.54-.28-.15-.1-.26-.23-.34-.38a1.19 1.19 0 0 1 0-1.05c.09-.16.2-.31.36-.44.15-.13.34-.23.56-.3.21-.08.46-.11.72-.11.38 0 .7.07.98.2.27.14.47.32.62.54.14.22.21.47.21.74h-.81a.7.7 0 0 0-.12-.38.87.87 0 0 0-.34-.31 1.1 1.1 0 0 0-.54-.12c-.22 0-.4.03-.55.1a.7.7 0 0 0-.3.26.65.65 0 0 0-.05.57c.03.07.09.13.17.2.08.05.19.1.33.15l.55.15c.4.09.71.2.96.32.26.12.44.27.57.45.12.18.18.4.18.65a1.24 1.24 0 0 1-.5 1.02c-.17.12-.36.22-.58.29-.23.07-.48.1-.76.1a2.3 2.3 0 0 1-1.06-.23 1.64 1.64 0 0 1-.66-.58 1.39 1.39 0 0 1-.22-.75H79c0 .23.07.4.19.54.12.12.26.22.43.27a1.7 1.7 0 0 0 1.06 0 .78.78 0 0 0 .35-.25c.08-.1.12-.22.12-.35ZM85 17.42c-.33 0-.63-.06-.9-.17a2.04 2.04 0 0 1-1.13-1.2c-.1-.29-.15-.6-.15-.93v-.18c0-.4.06-.73.17-1.04.11-.3.27-.56.47-.77a2 2 0 0 1 2.32-.47c.24.12.45.29.6.5.16.2.28.45.36.73.07.29.11.6.11.93v.36H83.3v-.66h2.74v-.06a2.03 2.03 0 0 0-.13-.62 1.1 1.1 0 0 0-.35-.49c-.17-.13-.38-.2-.66-.2a1.1 1.1 0 0 0-.91.47c-.11.15-.2.34-.26.56-.06.22-.1.47-.1.76v.18c0 .23.04.44.1.64.06.2.15.37.27.52.13.15.28.26.45.35.17.08.37.13.6.13.28 0 .53-.06.73-.18.2-.12.37-.27.52-.47l.5.39c-.11.16-.24.3-.4.44-.16.14-.35.26-.58.35-.23.09-.5.13-.82.13ZM90.8 16.4v-5.82h.82v6.75h-.75l-.07-.92ZM87.6 15v-.09c0-.36.04-.69.13-.98.1-.3.22-.56.38-.77a1.69 1.69 0 0 1 1.37-.67c.3 0 .56.05.78.16.23.1.42.25.57.45.16.2.29.43.38.71.09.28.15.6.19.95v.4c-.04.35-.1.66-.2.94-.08.28-.2.52-.37.71-.15.2-.34.35-.57.46a1.9 1.9 0 0 1-1.55-.03 1.8 1.8 0 0 1-.6-.5c-.16-.22-.29-.48-.38-.77-.09-.3-.13-.62-.13-.96Zm.82-.09v.1c0 .23.02.46.07.66.05.21.12.4.23.55.1.16.23.29.39.38.16.09.34.13.56.13.27 0 .5-.06.67-.17.17-.12.31-.27.42-.45.1-.2.19-.4.25-.62v-1.05a2.36 2.36 0 0 0-.16-.47 1.44 1.44 0 0 0-.25-.4 1.1 1.1 0 0 0-.39-.3c-.15-.06-.32-.1-.53-.1-.22 0-.41.05-.57.14-.16.1-.3.22-.4.38-.1.16-.17.35-.22.56-.05.2-.07.43-.07.66ZM51.92 28.6l1.3-4.02h.83l-1.7 4.75h-.55l.12-.73Zm-1.09-4.02 1.35 4.04.09.71h-.55L50 24.58h.84ZM55.72 24.58v4.75h-.82v-4.75h.82Zm-.88-1.27c0-.13.04-.24.12-.33.08-.09.2-.14.36-.14.15 0 .27.05.35.14.09.1.13.2.13.33s-.04.24-.13.33c-.08.09-.2.13-.35.13-.16 0-.28-.04-.36-.13a.48.48 0 0 1-.12-.33ZM59.83 28.52v-2.45a1 1 0 0 0-.12-.49.75.75 0 0 0-.33-.32 1.21 1.21 0 0 0-.56-.12c-.2 0-.38.04-.54.1a.94.94 0 0 0-.36.29.6.6 0 0 0-.12.36h-.82c0-.17.05-.33.13-.5.1-.17.22-.32.38-.45.17-.14.37-.25.6-.33.23-.08.5-.12.78-.12.35 0 .65.06.92.17.26.12.47.3.62.54.15.23.23.52.23.88v2.21c0 .16.01.33.04.5.03.19.07.34.13.47v.07h-.85c-.04-.1-.08-.22-.1-.37l-.03-.44Zm.14-2.07v.57h-.82c-.23 0-.43.02-.62.06-.18.03-.33.09-.45.16a.73.73 0 0 0-.38.66c0 .15.03.28.1.4.07.13.17.23.3.3.14.07.31.1.5.1a1.34 1.34 0 0 0 1.12-.54c.12-.15.18-.3.19-.44l.34.39c-.02.12-.07.26-.16.4a1.95 1.95 0 0 1-.9.78c-.21.09-.44.13-.7.13-.32 0-.6-.06-.85-.19-.24-.13-.43-.3-.56-.5-.13-.22-.2-.46-.2-.72 0-.26.05-.48.15-.67.1-.2.24-.36.43-.5.19-.12.41-.22.68-.3.26-.06.56-.1.88-.1h.95ZM65.25 25.73h.58c.28 0 .52-.04.7-.14.19-.1.33-.23.42-.39.1-.17.14-.35.14-.56 0-.25-.04-.45-.12-.62a.82.82 0 0 0-.37-.38 1.35 1.35 0 0 0-.63-.13c-.22 0-.43.05-.6.14a1 1 0 0 0-.56.96h-.8c0-.33.07-.62.24-.9.16-.26.4-.47.69-.63.3-.16.64-.24 1.03-.24.4 0 .73.07 1.02.21.29.14.51.34.68.6.16.27.24.6.24 1a1.53 1.53 0 0 1-.46 1.03 1.8 1.8 0 0 1-.61.4c-.25.1-.55.14-.9.14h-.7v-.49Zm0 .67v-.49h.7a3 3 0 0 1 1 .15c.27.1.48.22.63.38.16.16.27.34.33.54a1.95 1.95 0 0 1-.06 1.37 1.82 1.82 0 0 1-1.07.95c-.24.08-.51.12-.8.12-.28 0-.54-.04-.79-.12-.24-.08-.46-.2-.64-.34a1.6 1.6 0 0 1-.6-1.32h.81a1.03 1.03 0 0 0 .57.98c.18.09.4.13.65.13s.46-.04.64-.13a.92.92 0 0 0 .42-.4c.1-.17.15-.39.15-.66 0-.26-.06-.48-.17-.65a.98.98 0 0 0-.47-.38c-.2-.09-.45-.13-.72-.13h-.58ZM71.07 29.33h-1.34l.01-.69h1.33c.45 0 .84-.1 1.14-.28.3-.2.53-.47.69-.81.15-.35.23-.76.23-1.22v-.4c0-.36-.05-.69-.13-.97a1.97 1.97 0 0 0-.39-.73c-.17-.2-.38-.35-.62-.45-.25-.1-.53-.15-.84-.15H69.7v-.7h1.44c.42 0 .8.07 1.14.21.35.14.65.34.9.6.25.27.44.58.58.95.13.37.2.79.2 1.25v.39c0 .46-.07.88-.2 1.25a2.61 2.61 0 0 1-1.5 1.54c-.36.14-.76.21-1.2.21Zm-.89-6.4v6.4h-.84v-6.4h.84ZM76.81 26.28v.66h-2.14v-.66h2.14ZM81.14 27.71c0-.15-.02-.28-.07-.4a.75.75 0 0 0-.24-.3c-.1-.1-.26-.2-.46-.28a6.5 6.5 0 0 0-.75-.26c-.32-.09-.6-.2-.86-.3a3 3 0 0 1-.65-.4 1.46 1.46 0 0 1-.56-1.18 1.56 1.56 0 0 1 .59-1.24c.2-.16.42-.29.69-.37.26-.1.56-.14.89-.14.48 0 .89.1 1.22.28.34.18.6.42.77.72.18.3.26.6.26.94h-.84c0-.24-.05-.45-.15-.64-.1-.19-.26-.33-.47-.44a1.7 1.7 0 0 0-.79-.16c-.3 0-.55.04-.75.14-.2.09-.34.2-.44.36a1 1 0 0 0-.14.54c0 .13.03.25.09.37.06.1.14.2.26.3.13.1.28.18.47.26.2.08.42.15.68.23.36.1.68.21.94.34.27.13.48.27.65.43.18.15.3.33.38.53.09.2.13.42.13.67a1.54 1.54 0 0 1-.61 1.25c-.2.14-.43.26-.7.34a3.27 3.27 0 0 1-1.8 0 2.6 2.6 0 0 1-.77-.37 1.68 1.68 0 0 1-.76-1.45h.84c0 .22.04.4.12.56.09.16.2.29.35.39.15.1.32.18.5.23a2.47 2.47 0 0 0 1.35-.05 1 1 0 0 0 .47-.36.9.9 0 0 0 .16-.54ZM84.92 29.42c-.33 0-.63-.06-.9-.17a2.04 2.04 0 0 1-1.13-1.2c-.1-.29-.15-.6-.15-.93v-.18c0-.4.06-.73.17-1.04.11-.3.27-.56.47-.77a2 2 0 0 1 2.32-.47c.25.12.45.29.6.5.17.2.28.45.36.73.08.29.11.6.11.93v.36h-3.55v-.66h2.74v-.06a2.03 2.03 0 0 0-.13-.62 1.1 1.1 0 0 0-.35-.49c-.16-.13-.38-.2-.66-.2a1.1 1.1 0 0 0-.91.47c-.11.15-.2.34-.26.56-.06.22-.1.47-.1.76v.18c0 .23.04.44.1.64.06.2.16.37.28.52.12.15.27.26.44.35.18.08.37.13.6.13.28 0 .53-.06.73-.18.2-.12.37-.27.52-.47l.5.39c-.11.16-.24.3-.4.44-.16.14-.35.26-.58.35-.23.09-.5.13-.82.13ZM89.63 28.75c.19 0 .37-.04.53-.12.17-.08.3-.19.4-.32a.9.9 0 0 0 .19-.48h.77c-.02.28-.11.54-.29.78a1.95 1.95 0 0 1-1.6.8c-.36 0-.67-.05-.94-.18-.26-.13-.48-.3-.66-.52-.17-.22-.3-.47-.4-.75a3.19 3.19 0 0 1-.12-.91v-.19c0-.32.04-.62.13-.9.09-.3.22-.54.39-.76.18-.22.4-.4.66-.52.27-.13.58-.2.94-.2a2 2 0 0 1 .97.24c.28.15.5.35.66.61.16.26.24.55.26.88h-.77c-.02-.2-.07-.37-.17-.53a1.08 1.08 0 0 0-.95-.52c-.25 0-.46.05-.63.15-.17.1-.3.22-.4.4-.1.16-.17.34-.21.54-.04.2-.07.4-.07.61v.19c0 .2.03.4.07.61.04.2.1.39.2.55.1.16.24.3.4.4.17.1.38.14.64.14ZM95.34 28.23v-3.65h.82v4.75h-.78l-.04-1.1Zm.16-1h.33c0 .3-.03.6-.1.87-.06.27-.17.5-.31.7-.15.2-.34.34-.58.46-.24.1-.52.16-.86.16-.24 0-.45-.03-.64-.1a1.27 1.27 0 0 1-.81-.86c-.08-.23-.11-.5-.11-.82v-3.06h.8v3.07c0 .22.03.4.08.53.05.14.12.25.2.33.08.08.18.14.28.17a1.49 1.49 0 0 0 1.15-.15c.2-.13.34-.31.43-.54.1-.23.14-.48.14-.76ZM98.21 25.32v4.01h-.81v-4.75h.79l.02.74Zm1.49-.77v.76a2.04 2.04 0 0 0-.4-.04c-.19 0-.36.03-.5.09s-.26.14-.36.24c-.1.11-.18.24-.24.38-.06.15-.1.3-.11.48l-.23.13c0-.29.03-.56.08-.81.06-.25.15-.47.27-.67a1.28 1.28 0 0 1 1.49-.56ZM102.33 29.42c-.33 0-.63-.06-.9-.17a2.04 2.04 0 0 1-1.13-1.2c-.1-.29-.15-.6-.15-.93v-.18c0-.4.06-.73.17-1.04.12-.3.27-.56.47-.77a2 2 0 0 1 2.32-.47c.25.12.45.29.6.5.17.2.28.45.36.73.08.29.12.6.12.93v.36h-3.56v-.66h2.74v-.06a2.04 2.04 0 0 0-.13-.62 1.1 1.1 0 0 0-.35-.49c-.16-.13-.38-.2-.66-.2a1.1 1.1 0 0 0-.91.47c-.11.15-.2.34-.26.56-.06.22-.1.47-.1.76v.18c0 .23.04.44.1.64.06.2.16.37.28.52.12.15.27.26.44.35.18.08.38.13.6.13.29 0 .53-.06.73-.18.2-.12.37-.27.52-.47l.5.39c-.1.16-.24.3-.4.44-.16.14-.35.26-.58.35-.23.09-.5.13-.82.13Z" fill="#233746"/>
</svg>
