<svg width="19" height="16" viewBox="0 0 19 16" fill="none" xmlns="http://www.w3.org/2000/svg">
<path d="M9.5 13.9989C7.94188 14.0164 6.39987 13.713 4.9913 13.1119C3.89946 12.6313 2.91902 11.9676 2.10235 11.1562C1.23731 10.3173 0.556194 9.33815 0.095 8.27061L0 7.99979L0.09975 7.72898C0.561274 6.66237 1.24092 5.68352 2.1033 4.84342C2.91967 4.0321 3.89979 3.36839 4.9913 2.88772C6.39988 2.2866 7.94188 1.98324 9.5 2.00071C11.0581 1.98327 12.6001 2.28663 14.0087 2.88772C15.1006 3.36828 16.081 4.032 16.8977 4.84342C17.7643 5.6812 18.4457 6.6606 18.905 7.72898L19 7.99979L18.9003 8.27061C17.4099 11.7705 13.6555 14.0583 9.5 13.9989ZM9.5 3.71474C6.26608 3.62332 3.29785 5.32171 2.01115 7.99979C3.29764 10.678 6.266 12.3765 9.5 12.2848C12.7339 12.376 15.7019 10.6777 16.9888 7.99979C15.7038 5.32041 12.7345 3.62139 9.5 3.71474ZM9.5 10.5708C8.12946 10.579 6.9439 9.71155 6.66992 8.50009C6.39594 7.28863 7.11006 6.07154 8.37461 5.59473C9.63917 5.11792 11.101 5.51458 11.8641 6.54159C12.6273 7.56861 12.4786 8.93914 11.5092 9.81323C10.9785 10.2977 10.255 10.5705 9.5 10.5708Z" fill="#243746"/>
</svg>
