<svg width="140" height="34" viewBox="0 0 140 34" fill="none" xmlns="http://www.w3.org/2000/svg">
  <path d="M51.37 32.88V20.63c0-3.01-1.55-5.75-4.6-5.75-3 0-4.78 2.74-4.78 5.75v12.25h-5.55V9.96h5.14l.41 2.79c1.19-2.32 3.78-3.16 5.92-3.16 2.69 0 5.38 1.12 6.65 4.27 2-3.25 4.6-4.17 7.51-4.17 6.38 0 9.52 3.98 9.52 10.85v12.34h-5.56V20.54c0-3.02-1.22-5.57-4.23-5.57-3 0-4.87 2.65-4.87 5.66v12.25h-5.56ZM81.13 21.28c0 4.36 2.96 6.96 6.65 6.96 8.74 0 8.74-13.87 0-13.87-3.69 0-6.65 2.55-6.65 6.91ZM94.61 9.92h5.33V32.9H94.7l-.27-3.5c-1.28 2.7-4.78 4-7.29 4.04-6.65.05-11.56-4.13-11.56-12.15 0-7.88 5.14-12.01 11.7-11.96 3 0 5.87 1.43 7.15 3.7l.18-3.1ZM105.02 9.93v22.95h5.56V9.93h-5.56Zm6.06-6.63c0 4.41-6.56 4.41-6.56 0 0-4.4 6.56-4.4 6.56 0ZM121.56 21.42c0 4.13 3 6.73 6.51 6.73 3.55 0 6.37-2.74 6.37-6.73 0-4.13-2.82-6.68-6.37-6.68a6.47 6.47 0 0 0-6.51 6.68ZM121.19.43v12.69c1.33-2.37 5.01-3.66 7.38-3.66 6.56 0 11.43 4.08 11.43 11.96 0 7.51-4.96 11.97-11.57 11.97-2.73 0-5.5-.93-7.24-3.67l-.36 3.16h-5.2V.43h5.56Z" fill="#fff"/>
  <path d="M29.81 7.98A16.11 16.11 0 0 0 16.2.42C7.25.42 0 7.8 0 16.92c0 1.14.11 2.25.33 3.33C14.12 11.39 25.18 8.75 29.8 7.98ZM30.14 8.51C16.5 14.52 7.55 24.9 4.7 28.53a16 16 0 0 0 11.5 4.88c8.95 0 16.2-7.39 16.2-16.5 0-3.07-.83-5.94-2.26-8.4Z" fill="#40C1AC"/>
</svg>
