<?xml version="1.0" encoding="utf-8"?>
<!-- Generator: Adobe Illustrator 27.1.1, SVG Export Plug-In . SVG Version: 6.00 Build 0)  -->
<svg version="1.1" id="Layer_1" xmlns="http://www.w3.org/2000/svg" xmlns:xlink="http://www.w3.org/1999/xlink" x="0px" y="0px"
	 viewBox="0 0 74.3 46" style="enable-background:new 0 0 74.3 46;" xml:space="preserve">
<style type="text/css">
	.st0{fill:#FF5A00;}
	.st1{fill:#EB001B;}
	.st2{fill:#F79E1B;}
</style>
<path class="st0" d="M47,4.9H27V41h20V4.9z"/>
<path class="st1" d="M28.3,23c0-7.3,3.4-13.8,8.7-18.1C33.1,1.9,28.2,0,22.9,0C10.2,0,0,10.3,0,23s10.2,23,22.9,23
	c5.3,0,10.2-1.9,14.1-4.9C31.7,36.9,28.3,30.3,28.3,23z"/>
<path class="st2" d="M74,23c0,12.7-10.2,23-22.9,23c-5.3,0-10.2-1.9-14.1-4.9c5.3-4.2,8.7-10.7,8.7-18.1c0-7.3-3.4-13.8-8.7-18.1
	c3.9-3,8.8-4.9,14.1-4.9C63.8,0,74,10.3,74,23z"/>
</svg>
