<svg width="42" height="40" viewBox="0 0 42 40" fill="none" xmlns="http://www.w3.org/2000/svg">
  <path d="M2.83 38.93h-.57v-6.21h.57v6.2Zm4.12-6.21c.5-.01 1 .06 1.46.21.41.13.79.35 1.1.62.31.28.55.61.7.98a3.5 3.5 0 0 1 0 2.58c-.15.37-.39.7-.7.98-.31.28-.69.49-1.1.62-.47.15-.96.23-1.46.22H4.6v-6.21h2.36Zm-1.8.51v5.18h1.8c.43.01.85-.05 1.26-.18.33-.11.65-.29.9-.52.26-.23.45-.5.57-.82a3.1 3.1 0 0 0 0-2.14 2.19 2.19 0 0 0-.56-.82 2.52 2.52 0 0 0-.91-.52c-.4-.13-.83-.19-1.26-.18h-1.8Zm11.88-.59a3.62 3.62 0 0 1 1.54.35 2.5 2.5 0 0 1 1.09.93l-.48.3a2.22 2.22 0 0 0-.9-.77 2.67 2.67 0 0 0-1.25-.28c-.36 0-.73.06-1.07.19a2.58 2.58 0 0 0-1.45 1.38c-.28.7-.28 1.47 0 2.16a2.52 2.52 0 0 0 1.45 1.39 2.99 2.99 0 0 0 2.32-.1 2.49 2.49 0 0 0 .9-.77l.46.32a2.67 2.67 0 0 1-1.09.92 3.77 3.77 0 0 1-2.84.1 3 3 0 0 1-1.75-1.66 3.39 3.39 0 0 1 0-2.56 3 3 0 0 1 1.76-1.66c.42-.16.86-.24 1.31-.24Zm4.37 2.84a1.61 1.61 0 0 1 .68-.6 1.94 1.94 0 0 1 .87-.2c.25 0 .5.04.74.12.22.08.42.19.59.34.16.15.29.33.37.53.1.22.14.46.13.7v2.56h-.53v-2.4c0-.2-.02-.4-.09-.57a1.13 1.13 0 0 0-.71-.7 1.75 1.75 0 0 0-1.17 0 1.38 1.38 0 0 0-.77.73c-.08.18-.12.37-.11.56v2.38h-.53v-6.4h.53v2.95Zm6.53-.8c.27 0 .55.06.8.16a1.92 1.92 0 0 1 1.08 1.12 2.35 2.35 0 0 1 .15 1.06H26.3c.02.23.07.45.17.65a1.54 1.54 0 0 0 .9.78 2 2 0 0 0 2.1-.5l.28.36a2.58 2.58 0 0 1-.87.54c-.14.06-.3.1-.45.11a3.5 3.5 0 0 1-.47.04c-.3 0-.6-.05-.88-.16a1.99 1.99 0 0 1-1.15-1.12 2.28 2.28 0 0 1-.16-.88c0-.3.05-.59.16-.86a2.06 2.06 0 0 1 2-1.3Zm-.01.45a1.53 1.53 0 0 0-1.43.87c-.1.19-.16.39-.18.59h3.12c-.01-.2-.07-.4-.15-.6a1.49 1.49 0 0 0-.8-.75 1.5 1.5 0 0 0-.56-.1ZM33 34.7c.3 0 .62.05.9.16.27.1.51.27.7.48l-.34.35a1.79 1.79 0 0 0-1.28-.52 1.74 1.74 0 0 0-1.2.48 1.6 1.6 0 0 0-.35.53c-.17.43-.17.91 0 1.35a1.55 1.55 0 0 0 .9.87 1.77 1.77 0 0 0 1.38-.02 2 2 0 0 0 .57-.37l.33.35c-.2.2-.44.37-.71.48-.58.22-1.22.22-1.8 0a2.11 2.11 0 0 1-1.17-1.13 2.3 2.3 0 0 1 0-1.71 2 2 0 0 1 1.17-1.14c.28-.11.6-.17.9-.16Zm3.2 1.82h.7l1.84-1.76h.67l-2.08 1.97 2.12 2.2h-.68l-1.86-1.95h-.71v1.96h-.53v-6.4h.53v3.98Z" fill="#000"/>
  <path d="M24.93 5.82h-8.06v13.89h8.06V5.82Z" fill="#FF5F00"/>
  <path d="M17.38 12.76c0-1.33.32-2.65.93-3.86a8.9 8.9 0 0 1 2.59-3.08 9.55 9.55 0 0 0-9.72-1A9.09 9.09 0 0 0 7.4 8.08a8.57 8.57 0 0 0 0 9.37 9.09 9.09 0 0 0 3.78 3.26 9.56 9.56 0 0 0 9.72-1 8.9 8.9 0 0 1-2.6-3.08 8.52 8.52 0 0 1-.92-3.87Z" fill="#EB001B"/>
  <path d="M35.8 12.76c0 1.66-.49 3.29-1.4 4.69a9.09 9.09 0 0 1-3.78 3.26 9.55 9.55 0 0 1-9.72-1 8.91 8.91 0 0 0 2.6-3.09 8.54 8.54 0 0 0 0-7.72 8.91 8.91 0 0 0-2.6-3.08 9.55 9.55 0 0 1 9.72-1 9.09 9.09 0 0 1 3.78 3.26 8.57 8.57 0 0 1 1.4 4.68ZM34.92 18.24v-.29h.12v-.05h-.3v.05h.12v.29h.06Zm.6 0v-.35h-.1l-.1.24-.12-.24h-.09v.35h.07v-.26l.1.22h.07l.1-.22v.26h.06Z" fill="#F79E1B"/>
  <path d="M7.45 29.5v-2.1c0-.8-.5-1.33-1.37-1.33-.43 0-.9.13-1.22.6-.25-.4-.61-.6-1.16-.6-.36 0-.72.1-1 .49v-.42h-.76v3.36h.76v-1.86c0-.6.32-.88.82-.88.5 0 .76.32.76.88v1.86h.75v-1.86c0-.6.37-.88.83-.88.5 0 .76.32.76.88v1.86h.83Zm11.21-3.36h-1.22v-1.02h-.76v1.02H16v.66h.68v1.55c0 .77.32 1.22 1.19 1.22.32 0 .68-.1.93-.24l-.21-.64c-.22.14-.47.18-.65.18-.37 0-.5-.21-.5-.56v-1.5h1.22v-.67Zm6.42-.08c-.44 0-.72.21-.9.5v-.43h-.76v3.37h.75v-1.9c0-.56.26-.88.73-.88.14 0 .32.04.47.07l.22-.7c-.16-.03-.37-.03-.51-.03Zm-9.7.35a2.53 2.53 0 0 0-1.4-.35c-.87 0-1.44.42-1.44 1.09 0 .56.43.88 1.19.98l.36.04c.4.07.6.17.6.35 0 .24-.28.42-.78.42s-.9-.18-1.16-.35l-.36.56c.4.28.94.42 1.48.42 1 0 1.58-.46 1.58-1.09 0-.6-.47-.91-1.18-1.02l-.36-.03c-.33-.04-.58-.11-.58-.32 0-.24.25-.38.65-.38.43 0 .87.17 1.08.28l.32-.6Zm20.1-.35c-.42 0-.71.21-.9.5v-.43h-.75v3.37h.76v-1.9c0-.56.25-.88.72-.88.14 0 .32.04.47.07l.22-.7c-.15-.03-.36-.03-.51-.03Zm-9.65 1.76c0 1.02.72 1.75 1.84 1.75.5 0 .87-.1 1.23-.38l-.36-.6c-.3.21-.58.32-.9.32-.62 0-1.05-.43-1.05-1.1 0-.62.43-1.05 1.04-1.08.33 0 .62.1.9.32l.37-.6a1.82 1.82 0 0 0-1.23-.38c-1.12 0-1.84.73-1.84 1.75Zm7 0v-1.68h-.76v.42a1.32 1.32 0 0 0-1.09-.5 1.7 1.7 0 0 0-1.73 1.76 1.7 1.7 0 0 0 1.73 1.75c.5 0 .87-.17 1.09-.49v.42h.75v-1.68Zm-2.78 0c0-.6.4-1.09 1.04-1.09.62 0 1.05.46 1.05 1.09 0 .6-.43 1.09-1.05 1.09a1.05 1.05 0 0 1-1.04-1.1ZM21 26.06c-1 0-1.72.7-1.72 1.75 0 1.06.72 1.76 1.76 1.76.5 0 1.01-.14 1.4-.46l-.35-.53c-.3.21-.65.35-1.01.35-.47 0-.94-.2-1.04-.8h2.55v-.28c.04-1.09-.62-1.79-1.59-1.79Zm0 .64c.48 0 .8.28.87.8h-1.8a.9.9 0 0 1 .93-.8Zm18.78 1.12V24.8h-.76v1.76a1.32 1.32 0 0 0-1.08-.5 1.7 1.7 0 0 0-1.73 1.76 1.7 1.7 0 0 0 1.73 1.75c.5 0 .87-.17 1.08-.49v.42h.76v-1.68Zm-2.78 0c0-.6.4-1.09 1.05-1.09.61 0 1.05.46 1.05 1.09a1.05 1.05 0 1 1-2.1 0Zm-25.3 0v-1.68h-.75v.42a1.32 1.32 0 0 0-1.08-.5 1.7 1.7 0 0 0-1.73 1.76 1.7 1.7 0 0 0 1.73 1.75c.5 0 .86-.17 1.08-.49v.42h.76v-1.68Zm-2.8 0c0-.6.4-1.09 1.04-1.09.62 0 1.05.46 1.05 1.09a1.05 1.05 0 1 1-2.1 0Z" fill="#000"/>
</svg>
