<?xml version="1.0" standalone="no"?>
<!DOCTYPE svg PUBLIC "-//W3C//DTD SVG 20010904//EN"
 "http://www.w3.org/TR/2001/REC-SVG-20010904/DTD/svg10.dtd">
<svg version="1.0" xmlns="http://www.w3.org/2000/svg"
 width="260.000000pt" height="260.000000pt" viewBox="0 0 260.000000 260.000000"
 preserveAspectRatio="xMidYMid meet">
<metadata>
Created by potrace 1.14, written by Peter Selinger 2001-2017
</metadata>
<g transform="translate(0.000000,260.000000) scale(0.100000,-0.100000)"
fill="#000000" stroke="none">
<path d="M1145 2592 c-16 -2 -70 -12 -119 -23 -492 -109 -882 -515 -981 -1024
-19 -98 -25 -302 -12 -405 14 -110 12 -108 81 -61 189 127 684 393 956 513 19
9 55 25 80 36 292 128 823 303 1025 338 17 2 37 7 45 9 21 6 68 15 113 22 20
3 37 8 37 11 0 3 -26 39 -57 81 -63 83 -142 165 -218 226 -27 22 -52 43 -55
46 -12 14 -170 104 -227 130 -156 70 -306 101 -493 104 -80 1 -158 0 -175 -3z"/>
<path d="M2210 1872 c-215 -109 -389 -210 -574 -334 -378 -255 -765 -600
-1106 -988 -56 -64 -130 -158 -130 -166 0 -14 101 -101 189 -162 128 -90 294
-161 463 -198 83 -18 325 -27 408 -14 299 45 533 163 740 371 169 170 291 393
341 621 29 133 33 168 32 308 0 144 -19 265 -63 400 -32 100 -98 241 -115 247
-5 1 -89 -37 -185 -85z"/>
</g>
</svg>
