<?xml version="1.0" encoding="utf-8"?>
<!-- Generator: Adobe Illustrator 27.1.1, SVG Export Plug-In . SVG Version: 6.00 Build 0)  -->
<svg version="1.1" id="Layer_1" xmlns="http://www.w3.org/2000/svg" xmlns:xlink="http://www.w3.org/1999/xlink" x="0px"
	y="0px" viewBox="0 0 80.1 25.5" style="enable-background:new 0 0 80.1 25.5;" xml:space="preserve">
	<style type="text/css">
		.st0 {
			fill: #1434cb;
		}

		.st1 {
			fill: #FAA61A;
		}
	</style>
	<path class="st0" d="M34.7,25.1h-6.5l4.1-24.6h6.5L34.7,25.1z" />
	<path class="st0" d="M58.2,1c-1.3-0.5-3.3-1-5.8-1C46,0,41.5,3.4,41.5,8.2c-0.1,3.5,3.2,5.5,5.7,6.7s3.4,2,3.4,3.1
	c0,1.7-2,2.4-3.9,2.4c-2.6,0-4-0.4-6.1-1.3l-0.9-0.4l-0.9,5.5c1.5,0.7,4.3,1.3,7.2,1.3c6.8,0,11.2-3.3,11.3-8.4c0-2.8-1.7-5-5.4-6.7
	c-2.3-1.1-3.7-1.9-3.7-3c0-1,1.2-2.1,3.7-2.1c2.1-0.1,3.7,0.4,4.8,0.9l0.6,0.3L58.2,1L58.2,1z" />
	<path class="st0" d="M66.8,16.4c0.5-1.4,2.6-6.9,2.6-6.9c0,0.1,0.5-1.4,0.9-2.4l0.5,2.1c0,0,1.2,5.9,1.5,7.1
	C71.1,16.4,68.1,16.4,66.8,16.4z M74.8,0.4h-5c-1.5,0-2.7,0.4-3.4,2L56.8,25h6.8c0,0,1.1-3,1.4-3.7c0.7,0,7.4,0,8.3,0
	c0.2,0.9,0.8,3.7,0.8,3.7h6L74.8,0.4L74.8,0.4z" />
	<path class="st0" d="M22.8,0.4l-6.3,16.8l-0.7-3.4c-1.2-3.9-4.9-8.2-9-10.3L12.6,25h6.9L29.6,0.4H22.8L22.8,0.4z" />
	<path class="st0" d="M10.5,0.4H0.1L0,0.9c8.1,2,13.5,7,15.7,12.9L13.5,2.5C13.1,0.9,11.9,0.5,10.5,0.4z" />
</svg>